<svg width="49" height="48" viewBox="0 0 49 48" fill="none" xmlns="http://www.w3.org/2000/svg">
<path d="M48.5 24.1487C48.5 10.808 37.7495 0 24.5 0C11.2415 0 0.5 10.808 0.5 24.1487C0.5 36.1989 9.2735 46.1904 20.75 48V31.1306H14.6555V24.1502H20.75V18.8269C20.75 12.7762 24.3275 9.43458 29.8115 9.43458C32.438 9.43458 35.1875 9.90548 35.1875 9.90548V15.8476H32.156C29.18 15.8476 28.25 17.7115 28.25 19.6208V24.1487H34.9055L33.836 31.1291H28.25V47.9985C39.7175 46.1889 48.5 36.1973 48.5 24.1472V24.1487Z" fill="#2A89FD"/>
</svg>
