<svg width="426" height="426" viewBox="0 0 426 426" fill="none" xmlns="http://www.w3.org/2000/svg">
<g filter="url(#filter0_b_931_50)">
<path d="M247.902 3.09344C149.114 -15.1617 73.8632 53.0891 68.2856 58.3175C59.442 66.6047 -2.79821 126.906 0.0976591 221.478C2.649 304.818 54.8026 382.713 128.608 412.354C243.744 458.592 401.01 383.153 423.36 249.089C442.579 133.806 354.101 22.7197 247.902 3.09344Z" fill="white" fill-opacity="0.1"/>
<path d="M68.6275 58.6823L68.6275 58.6823C71.3948 56.0882 91.5604 37.7539 123.358 22.3491C155.154 6.94485 198.553 -5.51724 247.811 3.58512C353.766 23.1661 442.037 134.015 422.867 249.006C411.722 315.858 366.936 368.114 310.545 397.893C254.151 427.674 186.204 434.945 128.794 411.89C55.1863 382.328 3.14313 304.618 0.597425 221.462C-2.29149 127.118 59.8063 66.9486 68.6275 58.6823Z" stroke="url(#paint0_linear_931_50)"/>
</g>
<path d="M212.725 212.839C193.795 203.716 177.903 188.171 164.308 167.772C160.956 162.744 156.254 158.663 150.716 155.848C127.402 144.002 105.629 137.935 86.7039 142.58C82.8769 143.518 79.2594 149.393 80.5374 152.671C83.843 161.144 99.0672 173.24 117.069 182.642C117.879 183.066 117.76 184.262 116.882 184.521C110.106 186.525 104.926 187.317 100.983 189.987C97.177 192.564 95.4963 201.177 98.4178 204.233C102.28 208.274 109.049 210.921 115.695 215.235C110.732 217.076 107.185 219.918 104.801 223.587C103.181 226.08 103.919 229.225 106.547 230.557C110.613 232.617 117.639 233.588 125.81 234.137C118.214 241.193 112.608 247.578 111.426 252.471C110.728 255.358 113.137 257.937 116.345 257.721C124.427 257.178 139.16 251.061 152.953 245.73C168.44 241.486 180.319 244.023 190.292 250.148L212.728 212.839H212.725Z" fill="#FFCE36"/>
<path d="M154.484 168.065C154.335 168.065 154.184 168.021 154.051 167.933C137.165 156.472 116.452 149.915 90.7263 147.883C90.3027 147.85 89.9861 147.478 90.0187 147.054C90.0513 146.63 90.4214 146.314 90.8474 146.346C116.847 148.399 137.805 155.043 154.917 166.657C155.269 166.894 155.36 167.374 155.122 167.725C154.973 167.944 154.731 168.063 154.484 168.063V168.065Z" fill="#FFE28A"/>
<path d="M209.322 210.651C228.252 201.528 244.145 185.983 257.739 165.584C261.092 160.555 265.794 156.475 271.332 153.66C294.646 141.814 316.418 135.747 335.344 140.391C339.171 141.33 342.788 147.205 341.51 150.483C338.205 158.956 322.98 171.052 304.979 180.454C304.169 180.878 304.288 182.074 305.165 182.333C311.942 184.337 317.121 185.128 321.064 187.799C324.871 190.375 326.551 198.989 323.63 202.045C319.768 206.086 312.998 208.733 306.352 213.047C311.315 214.888 314.863 217.73 317.247 221.399C318.867 223.892 318.129 227.037 315.501 228.369C311.434 230.429 304.409 231.4 296.238 231.949C303.834 239.005 309.439 245.39 310.622 250.283C311.32 253.17 308.911 255.749 305.703 255.533C297.621 254.99 282.887 248.872 269.095 243.542C253.608 239.298 241.728 241.835 231.756 247.96L209.32 210.651H209.322Z" fill="#FFCE36"/>
<path d="M267.565 165.877C267.319 165.877 267.077 165.758 266.928 165.539C266.69 165.188 266.781 164.708 267.132 164.471C284.247 152.857 305.202 146.213 331.202 144.16C331.624 144.13 331.996 144.442 332.031 144.868C332.064 145.292 331.749 145.662 331.323 145.697C305.598 147.729 284.885 154.286 267.998 165.747C267.866 165.837 267.714 165.879 267.565 165.879V165.877Z" fill="#FFE28A"/>
<path d="M351.909 379.666H321.351C320.925 379.666 320.58 379.322 320.58 378.896V360.496H106.232V378.896C106.232 379.322 105.888 379.666 105.462 379.666H33.5283C33.1023 379.666 32.7578 379.322 32.7578 378.896C32.7578 378.47 33.1023 378.125 33.5283 378.125H104.694V359.726C104.694 359.3 105.038 358.955 105.464 358.955H321.355C321.781 358.955 322.126 359.3 322.126 359.726V378.125H351.913C352.339 378.125 352.684 378.47 352.684 378.896C352.684 379.322 352.339 379.666 351.913 379.666H351.909Z" fill="#2D3142"/>
<path d="M273.01 336.542C285.41 340.09 298.742 343.447 301.051 345.484C304.059 348.133 305.863 350.966 306.275 356.036C306.687 361.106 305.663 375.176 289.519 376.917C273.375 378.658 234.53 370.019 215.938 359.989C215.938 359.989 210.888 356.716 209.205 351.192L199.996 352.7C205.597 359.295 206.247 366.639 193.048 369.891C176.957 373.856 158.355 377.501 150.336 378.57C147.058 379.007 143.734 378.996 140.461 378.519C111.577 374.293 121.335 351.173 125.484 347.902C126.478 347.12 128.568 344.881 133.415 341.522L134.746 340.56C139.327 337.494 145.88 333.807 155.131 330.085C175.579 321.858 181.741 304.958 181.741 304.958L213.735 302.935L241.768 308.031C241.768 308.031 242.324 325.855 262.244 333.26C265.2 334.359 268.622 335.26 272.116 336.265L273.005 336.542H273.01Z" fill="#FFCE36"/>
<path d="M145.566 379.657C143.816 379.657 142.075 379.531 140.352 379.28C126.25 377.217 121.664 370.694 120.297 365.587C118.174 357.64 122.637 349.164 125.009 347.297C125.239 347.116 125.554 346.832 125.954 346.468C127.209 345.332 129.311 343.43 132.98 340.888L134.299 339.936C140.021 336.107 146.928 332.557 154.848 329.373C174.714 321.379 180.962 304.86 181.022 304.695C181.127 304.408 181.392 304.211 181.697 304.19L213.691 302.167C213.754 302.162 213.817 302.167 213.878 302.178L241.91 307.274C242.266 307.339 242.529 307.644 242.541 308.007C242.548 308.182 243.341 325.413 262.516 332.541C264.844 333.407 267.456 334.145 270.221 334.927C270.92 335.125 271.625 335.325 272.335 335.527C272.51 335.579 272.652 335.683 272.749 335.821C272.896 335.767 273.061 335.758 273.224 335.804C275.764 336.531 278.341 337.25 280.855 337.951C292.473 341.189 299.688 343.258 301.564 344.909C305.07 347.998 306.657 351.206 307.046 355.975C307.209 357.987 308.112 375.688 289.606 377.683C272.721 379.505 233.981 370.597 215.577 360.666C215.558 360.657 215.542 360.645 215.523 360.633C215.316 360.498 210.598 357.391 208.686 352.055L201.431 353.245C204.18 356.851 205.139 360.259 204.203 363.157C203.088 366.602 199.401 369.121 193.239 370.639C176.923 374.659 158.321 378.283 150.446 379.333C148.823 379.55 147.194 379.659 145.571 379.659L145.566 379.657ZM182.274 305.696C181.071 308.529 174.027 323.315 155.42 330.799C147.599 333.947 140.79 337.446 135.175 341.2L133.866 342.146C130.268 344.639 128.214 346.499 126.985 347.609C126.564 347.991 126.231 348.291 125.961 348.505C123.892 350.137 119.864 358.003 121.785 365.189C123.57 371.872 130.067 376.219 140.573 377.755C143.751 378.22 147.003 378.237 150.236 377.806C158.072 376.761 176.599 373.15 192.866 369.142C198.476 367.759 201.796 365.585 202.734 362.682C203.812 359.344 201.524 355.682 199.412 353.196C199.233 352.984 199.182 352.693 199.277 352.432C199.373 352.172 199.601 351.983 199.876 351.939L209.085 350.43C209.462 350.368 209.832 350.598 209.946 350.966C211.468 355.959 215.977 359.083 216.338 359.327C234.2 368.951 273.127 377.909 289.44 376.151C306.143 374.349 305.759 359.13 305.512 356.099C305.1 351.038 303.228 348.426 300.547 346.061C298.84 344.557 289.487 341.952 280.443 339.431C277.924 338.731 275.345 338.009 272.801 337.283C272.626 337.231 272.482 337.127 272.386 336.989C272.24 337.043 272.072 337.052 271.911 337.006C271.206 336.803 270.503 336.605 269.805 336.407C267.009 335.616 264.369 334.871 261.983 333.984C243.942 327.277 241.395 311.972 241.056 308.685L213.696 303.712L182.277 305.7L182.274 305.696Z" fill="#2D3142"/>
<path d="M188.667 368.08C188.667 368.08 207.872 362.703 220.631 356.639C232.272 351.105 252.243 340.192 257.655 337.276C263.068 334.359 267.665 334.75 272.412 336.186C276.625 337.462 279.882 337.879 279.451 334.182C279.118 331.335 275.373 333.039 270.254 328.751C265.137 324.465 258.093 322.47 251.47 328.129C244.848 333.788 235.364 327.38 230.152 326.13C224.94 324.88 220.57 328.846 220.228 334.524C219.886 340.202 196.933 351.559 196.933 351.559L188.662 368.08H188.667Z" fill="white"/>
<path d="M188.667 368.851C188.441 368.851 188.222 368.751 188.073 368.572C187.88 368.336 187.843 368.008 187.98 367.736L196.251 351.215C196.326 351.066 196.447 350.945 196.598 350.87C205.318 346.555 219.236 338.288 219.467 334.48C219.66 331.258 221.085 328.439 223.375 326.742C225.368 325.266 227.84 324.784 230.338 325.383C231.644 325.697 233.197 326.316 234.84 326.972C239.945 329.009 246.3 331.547 250.977 327.547C256.967 322.428 264.176 322.652 270.755 328.164C273.203 330.215 275.336 330.83 276.893 331.277C278.558 331.756 279.996 332.171 280.222 334.093C280.385 335.495 280.08 336.531 279.314 337.171C277.924 338.333 275.464 337.911 272.195 336.922C268.119 335.686 263.58 334.959 258.028 337.951L255.679 339.222C248.388 343.17 231.318 352.414 220.968 357.333C208.298 363.355 189.074 368.767 188.881 368.821C188.811 368.839 188.744 368.849 188.674 368.849L188.667 368.851ZM197.51 352.137L190.143 366.854C195.099 365.399 209.932 360.873 220.3 355.945C230.613 351.043 247.66 341.813 254.939 337.872L257.29 336.601C263.357 333.332 268.452 334.187 272.635 335.453C273.906 335.837 277.284 336.859 278.32 335.993C278.662 335.707 278.786 335.127 278.688 334.275C278.59 333.446 278.208 333.26 276.462 332.757C274.772 332.271 272.459 331.605 269.76 329.345C266.948 326.989 259.585 322.21 251.971 328.718C246.587 333.321 239.463 330.478 234.263 328.402C232.673 327.766 231.171 327.168 229.973 326.882C227.924 326.391 225.906 326.779 224.286 327.98C222.363 329.405 221.164 331.807 220.999 334.573C220.649 340.365 200.776 350.507 197.508 352.137H197.51Z" fill="#2D3142"/>
<path d="M213.952 357.989C213.952 357.989 200.704 354.693 184.22 344.497C182.952 343.712 181.515 343.24 180.033 343.1C176.513 342.769 169.303 341.512 163.004 336.745C154.282 330.143 147.955 333.553 146.309 334.51C144.661 335.467 137.158 337.21 142.154 329.005C147.149 320.799 152.946 320.676 157.534 321.551C162.122 322.426 168.731 325.494 173.487 324.605C178.242 323.716 185.436 318.164 189.176 320.962C192.917 323.76 191.532 324.298 194.365 329.68C197.196 335.062 213.244 339.459 213.244 339.459L213.952 357.989Z" fill="white"/>
<path d="M213.952 358.76C213.889 358.76 213.828 358.753 213.766 358.736C213.633 358.704 200.213 355.293 183.815 345.153C182.665 344.441 181.331 343.999 179.96 343.868C176.198 343.514 168.933 342.199 162.539 337.359C157.047 333.204 151.421 332.427 146.693 335.178C145.533 335.851 141.96 336.866 140.391 335.264C139.167 334.014 139.528 331.835 141.495 328.604C146.763 319.952 152.91 319.886 157.678 320.794C159.177 321.081 160.851 321.583 162.622 322.117C166.217 323.197 170.288 324.421 173.345 323.849C174.893 323.56 176.748 322.731 178.71 321.856C182.698 320.077 186.823 318.238 189.637 320.345C192.198 322.261 192.561 323.276 193.22 325.115C193.585 326.134 194.037 327.403 195.047 329.319C197.242 333.491 209.075 337.515 213.449 338.714C213.773 338.803 214.001 339.091 214.015 339.427L214.722 357.956C214.732 358.199 214.627 358.431 214.438 358.583C214.299 358.694 214.129 358.755 213.952 358.755V358.76ZM152.631 332.01C156.153 332.01 159.85 333.395 163.467 336.133C169.557 340.742 176.506 341.999 180.105 342.336C181.713 342.488 183.275 343.009 184.625 343.845C198.255 352.274 209.773 355.987 213.142 356.967L212.495 340.048C209.587 339.205 196.362 335.136 193.681 330.038C192.622 328.025 192.128 326.644 191.767 325.634C191.155 323.923 190.904 323.215 188.713 321.577C186.623 320.012 182.919 321.665 179.334 323.262C177.286 324.177 175.349 325.038 173.624 325.362C170.2 326.002 165.937 324.721 162.175 323.59C160.443 323.069 158.807 322.578 157.385 322.307C152.841 321.439 147.554 321.607 142.805 329.405C141.364 331.77 140.873 333.558 141.488 334.187C142.279 334.994 144.905 334.433 145.915 333.847C148.029 332.618 150.289 332.008 152.627 332.008L152.631 332.01Z" fill="#2D3142"/>
<path d="M272.121 336.263C284.701 339.88 298.7 343.409 301.054 345.484C304.062 348.133 305.866 350.966 306.278 356.036C306.69 361.106 305.665 375.176 289.522 376.917C273.378 378.658 234.533 370.019 215.94 359.989C215.94 359.989 203.665 352.03 211.01 339.995C211.01 339.995 211.582 333.644 242.545 338.218C257.311 340.4 272.118 336.265 272.118 336.265L272.121 336.263Z" fill="#FFCE36"/>
<path d="M284.645 377.92C266.036 377.92 232.352 369.719 215.572 360.666C215.554 360.657 215.537 360.645 215.519 360.633C215.391 360.55 202.778 352.172 210.283 339.701C210.374 339.364 210.658 338.717 211.527 338.044C214.257 335.93 221.876 334.11 242.666 337.457C245.904 337.979 257.397 338.775 261.457 337.422C261.864 337.287 262.297 337.506 262.43 337.909C262.565 338.312 262.346 338.749 261.943 338.882C257.367 340.407 245.551 339.48 242.422 338.975C220.314 335.418 214.113 337.99 212.469 339.259C211.901 339.699 211.773 340.057 211.773 340.06C211.762 340.176 211.724 340.29 211.664 340.388C204.897 351.48 215.586 358.827 216.331 359.321C234.193 368.944 273.117 377.909 289.436 376.146C306.138 374.345 305.754 359.125 305.507 356.094C305.095 351.033 303.224 348.421 300.542 346.056C298.819 344.539 289.247 341.864 279.989 339.278C277.612 338.614 275.189 337.937 272.803 337.255C272.668 337.215 271.993 337.027 271.267 336.824C270.387 336.577 269.432 336.312 269.267 336.263C268.86 336.144 268.622 335.718 268.741 335.311C268.86 334.901 269.286 334.666 269.693 334.785C269.856 334.831 270.806 335.097 271.681 335.341C272.412 335.546 273.089 335.735 273.227 335.774C275.61 336.454 278.031 337.131 280.404 337.795C290.69 340.667 299.576 343.151 301.561 344.902C305.067 347.991 306.655 351.199 307.044 355.968C307.207 357.98 308.11 375.681 289.603 377.676C288.111 377.836 286.449 377.913 284.647 377.913L284.645 377.92Z" fill="#2D3142"/>
<path d="M134.749 340.56C129.204 344.269 126.548 347.064 125.486 347.9C121.308 351.192 111.447 374.598 141.064 378.6C144.135 379.014 147.247 378.979 150.32 378.57C158.328 377.501 176.948 373.856 193.05 369.889C214.278 364.658 199.899 346.578 186.083 344.816C172.269 343.053 163.926 345.067 143.688 342.234C140.827 341.834 134.749 340.56 134.749 340.56Z" fill="#FFCE36"/>
<path d="M145.506 379.666C143.965 379.666 142.447 379.566 140.962 379.366C126.459 377.406 121.734 370.832 120.323 365.664C118.149 357.698 122.623 349.178 125.011 347.297C125.24 347.118 125.575 346.815 126.001 346.431C127.353 345.209 129.618 343.167 133.301 340.618C133.496 340.483 134.071 340.109 134.586 339.773C134.94 339.543 135.261 339.333 135.403 339.238C135.757 339.001 136.234 339.096 136.471 339.45C136.709 339.804 136.613 340.281 136.26 340.518C136.113 340.616 135.785 340.83 135.424 341.065C134.923 341.391 134.365 341.754 134.176 341.885C130.575 344.378 128.357 346.38 127.032 347.576C126.569 347.995 126.234 348.296 125.966 348.508C123.88 350.151 119.844 358.054 121.808 365.259C123.657 372.028 130.352 376.379 141.169 377.841C144.077 378.235 147.121 378.223 150.22 377.811C158.067 376.763 176.604 373.153 192.866 369.144C199.769 367.443 203.286 364.281 203.042 360C202.683 353.776 194.238 346.634 185.988 345.581C179.951 344.811 174.891 344.767 169.534 344.72C163.905 344.671 158.088 344.62 150.18 343.805C149.757 343.761 149.449 343.384 149.494 342.96C149.538 342.537 149.91 342.232 150.339 342.274C158.172 343.081 163.954 343.133 169.548 343.181C174.953 343.228 180.056 343.275 186.183 344.057C195.239 345.211 204.178 352.919 204.58 359.914C204.748 362.836 203.498 368.113 193.237 370.641C176.923 374.661 158.312 378.286 150.425 379.338C148.77 379.559 147.126 379.668 145.508 379.668L145.506 379.666Z" fill="#2D3142"/>
<path d="M80.2742 247.585L72.3269 240.315C72.3269 240.315 66.179 234.835 63.9698 235.157C62.3426 235.392 63.3878 238.362 65.9113 241.2C66.3303 241.67 65.7856 242.366 65.2315 242.063C63.0573 240.881 60.6154 239.417 59.7121 238.374C57.9476 236.332 54.1648 232.214 52.5051 234.146C50.843 236.076 52.4911 245.632 59.626 249.466C66.7586 253.3 77.1153 254.024 77.1153 254.024L80.2742 247.585Z" fill="white"/>
<path d="M77.1154 254.792C77.0967 254.792 77.0805 254.792 77.0618 254.792C76.6312 254.762 66.4584 254.012 59.2629 250.146C54.5141 247.594 52.0698 242.634 51.3668 238.842C50.9315 236.5 51.141 234.556 51.9232 233.646C52.3562 233.143 52.9335 232.878 53.5946 232.875H53.5969C55.2194 232.875 57.3471 234.463 60.2942 237.871C60.8762 238.544 62.3893 239.584 64.6054 240.837C63.2133 239.054 62.0285 236.835 62.5383 235.436C62.7501 234.856 63.218 234.486 63.8582 234.395C66.2931 234.044 71.7659 238.786 72.8391 239.74L80.7934 247.017C81.0448 247.248 81.1147 247.618 80.9657 247.925L77.8067 254.364C77.6764 254.629 77.4087 254.795 77.1154 254.795V254.792ZM53.5992 234.414C53.3851 234.414 53.2338 234.484 53.0918 234.649C52.7216 235.08 52.4982 236.488 52.8823 238.558C53.5201 241.998 55.7246 246.493 59.9939 248.786C66.0045 252.017 74.5012 253.004 76.6591 253.209L79.3315 247.762L71.8102 240.881C68.9888 238.367 65.2269 235.746 64.0816 235.916C64.0188 235.925 63.9978 235.939 63.9955 235.939C63.7581 236.248 64.3144 238.241 66.4863 240.683C66.9263 241.177 66.9449 241.882 66.5375 242.396C66.1302 242.911 65.4434 243.048 64.8638 242.736C61.8655 241.104 59.9357 239.805 59.1303 238.874C55.7711 234.991 54.2208 234.409 53.5969 234.409L53.5992 234.414Z" fill="#2D3142"/>
<path d="M347.642 244.403L355.589 237.133C355.589 237.133 361.737 231.653 363.946 231.974C365.573 232.21 364.528 235.18 362.005 238.018C361.586 238.488 362.13 239.184 362.684 238.881C364.859 237.699 367.3 236.234 368.204 235.192C369.968 233.15 373.751 229.032 375.411 230.964C377.073 232.894 375.425 242.45 368.29 246.284C361.157 250.118 350.801 250.842 350.801 250.842L347.642 244.403Z" fill="white"/>
<path d="M350.801 251.61C350.507 251.61 350.24 251.445 350.109 251.179L346.95 244.74C346.799 244.433 346.869 244.063 347.123 243.833L355.07 236.563C356.15 235.601 361.63 230.869 364.058 231.211C364.698 231.304 365.166 231.674 365.378 232.251C365.887 233.651 364.703 235.869 363.311 237.652C365.524 236.397 367.04 235.359 367.622 234.684C370.571 231.276 372.699 229.688 374.319 229.688H374.324C374.985 229.688 375.562 229.956 375.995 230.459C376.78 231.369 376.987 233.311 376.551 235.655C375.848 239.447 373.404 244.408 368.655 246.959C361.46 250.828 351.287 251.577 350.856 251.608C350.838 251.608 350.819 251.608 350.803 251.608L350.801 251.61ZM348.587 244.58L351.259 250.027C353.417 249.822 361.914 248.835 367.924 245.604C372.194 243.309 374.398 238.816 375.036 235.375C375.42 233.304 375.197 231.898 374.827 231.467C374.685 231.302 374.536 231.257 374.319 231.232C373.695 231.232 372.145 231.811 368.786 235.694C367.98 236.626 366.05 237.927 363.052 239.556C362.475 239.871 361.788 239.733 361.381 239.219C360.971 238.702 360.992 237.997 361.432 237.503C363.604 235.061 364.16 233.071 363.92 232.757C363.92 232.757 363.895 232.745 363.839 232.736C362.703 232.566 358.934 235.187 356.103 237.708L348.589 244.582L348.587 244.58Z" fill="#2D3142"/>
<path d="M203.344 197.212C200.132 197.222 197.026 198.262 194.393 200.101C191.53 202.099 186.441 204.603 178.026 205.758C164.538 207.609 153.316 211.815 138.68 224.23C115.735 243.691 118.388 249.992 79.3221 243.386L74.4988 256.482C74.4988 256.482 84.5808 266.425 104.042 267.994C104.042 267.994 138.327 272.712 161.899 250.679C163.654 249.038 166.473 249.405 167.793 251.414C171.268 256.701 176.953 267.486 179.025 283.788C179.742 289.435 179.763 294.92 179.323 298.149C177.791 309.409 178.627 312.218 178.627 312.218C178.627 312.218 214.113 329.356 242.373 311.429C242.373 311.429 243.719 307.677 242.07 286.647C241.116 274.488 247.438 258.903 250.949 251.158C252.071 248.686 255.3 248.081 257.243 249.973C264.9 257.432 283.222 270.889 311.217 270.298C311.217 270.298 333.686 269.125 354.602 252.681L348.393 240.655C348.393 240.655 301.876 256.119 280.732 228.531C276.418 222.903 265.014 207.19 247.124 204.848C233.432 203.055 227.766 201.926 224.33 200.003C220.922 198.095 217.05 197.175 213.144 197.184L203.344 197.21V197.212Z" fill="#2D3142"/>
<path d="M351.936 250.444C351.936 251.058 351.438 251.557 350.824 251.557C350.209 251.557 349.711 251.058 349.711 250.444C349.711 249.829 350.209 249.331 350.824 249.331C351.438 249.331 351.936 249.829 351.936 250.444Z" fill="white"/>
<path d="M81.7337 247.576C81.7337 248.19 81.2356 248.689 80.621 248.689C80.0065 248.689 79.5083 248.19 79.5083 247.576C79.5083 246.961 80.0065 246.463 80.621 246.463C81.2356 246.463 81.7337 246.961 81.7337 247.576Z" fill="white"/>
<path d="M208.198 244.924C206.296 244.924 204.75 243.379 204.75 241.477C204.75 239.575 206.296 238.029 208.198 238.029C210.099 238.029 211.645 239.575 211.645 241.477C211.645 243.379 210.099 244.924 208.198 244.924ZM208.198 239.568C207.145 239.568 206.291 240.425 206.291 241.477C206.291 242.529 207.148 243.383 208.198 243.383C209.247 243.383 210.106 242.527 210.106 241.477C210.106 240.427 209.25 239.568 208.198 239.568Z" fill="white"/>
<path d="M208.198 260.33C206.296 260.33 204.75 258.785 204.75 256.883C204.75 254.981 206.296 253.435 208.198 253.435C210.099 253.435 211.645 254.981 211.645 256.883C211.645 258.785 210.099 260.33 208.198 260.33ZM208.198 254.976C207.145 254.976 206.291 255.833 206.291 256.883C206.291 257.933 207.148 258.789 208.198 258.789C209.247 258.789 210.106 257.933 210.106 256.883C210.106 255.833 209.25 254.976 208.198 254.976Z" fill="white"/>
<path d="M208.198 275.738C206.296 275.738 204.75 274.193 204.75 272.291C204.75 270.389 206.296 268.843 208.198 268.843C210.099 268.843 211.645 270.389 211.645 272.291C211.645 274.193 210.099 275.738 208.198 275.738ZM208.198 270.382C207.145 270.382 206.291 271.239 206.291 272.288C206.291 273.338 207.148 274.197 208.198 274.197C209.247 274.197 210.106 273.341 210.106 272.288C210.106 271.236 209.25 270.382 208.198 270.382Z" fill="white"/>
<path d="M208.198 291.144C206.296 291.144 204.75 289.598 204.75 287.697C204.75 285.795 206.296 284.249 208.198 284.249C210.099 284.249 211.645 285.795 211.645 287.697C211.645 289.598 210.099 291.144 208.198 291.144ZM208.198 285.79C207.145 285.79 206.291 286.647 206.291 287.697C206.291 288.746 207.148 289.603 208.198 289.603C209.247 289.603 210.106 288.746 210.106 287.697C210.106 286.647 209.25 285.79 208.198 285.79Z" fill="white"/>
<path d="M208.198 306.55C206.296 306.55 204.75 305.004 204.75 303.102C204.75 301.201 206.296 299.655 208.198 299.655C210.099 299.655 211.645 301.201 211.645 303.102C211.645 305.004 210.099 306.55 208.198 306.55ZM208.198 301.196C207.145 301.196 206.291 302.053 206.291 303.102C206.291 304.152 207.148 305.009 208.198 305.009C209.247 305.009 210.106 304.152 210.106 303.102C210.106 302.053 209.25 301.196 208.198 301.196Z" fill="white"/>
<path d="M191.006 202.923L208.314 228.154L226.616 202.438C226.616 202.438 210.025 216.741 191.006 202.923Z" fill="white"/>
<path d="M208.314 228.925H208.307C208.055 228.925 207.82 228.799 207.678 228.59L190.371 203.358C190.159 203.048 190.201 202.632 190.468 202.371C190.738 202.108 191.155 202.08 191.458 202.299C209.771 215.607 225.95 201.994 226.11 201.857C226.406 201.603 226.844 201.607 227.132 201.871C227.421 202.134 227.468 202.569 227.242 202.885L208.94 228.601C208.796 228.804 208.563 228.925 208.314 228.925ZM193.827 205.672L208.325 226.811L223.54 205.432C217.984 208.614 206.589 213.009 193.825 205.672H193.827Z" fill="#2D3142"/>
<path d="M224.341 201.002C224.341 201.002 234.291 203.5 248.593 205.076C262.895 206.65 276.246 218.324 282.936 224.232C289.626 230.14 298.752 239.975 307.151 243.835C314.428 247.18 344.934 241.651 344.934 241.651L350.053 255.546C350.053 255.546 318.855 277.708 284.528 265.95C284.528 265.95 269.972 260.547 259.718 250.679C259.718 250.679 249.731 243.395 241.107 278.418L224.341 201.002Z" fill="white"/>
<path d="M241.109 279.188H241.098C240.739 279.184 240.432 278.932 240.357 278.581L223.592 201.165C223.536 200.904 223.618 200.634 223.808 200.448C223.999 200.264 224.274 200.19 224.53 200.255C224.63 200.281 234.6 202.76 248.679 204.308C263.368 205.926 276.93 217.898 283.448 223.65C285.041 225.056 286.759 226.674 288.579 228.385C294.485 233.939 301.178 240.236 307.474 243.132C314.451 246.342 344.497 240.946 344.799 240.89C345.165 240.82 345.53 241.03 345.658 241.381L350.777 255.276C350.898 255.602 350.784 255.97 350.5 256.17C350.421 256.226 342.469 261.822 330.411 265.882C319.267 269.635 302.218 272.817 284.282 266.674C284.117 266.613 269.484 261.11 259.234 251.275C259.013 251.135 257.702 250.4 255.738 251.14C252.807 252.243 247.108 257.276 241.856 278.599C241.773 278.944 241.463 279.186 241.109 279.186V279.188ZM225.354 202.031L241.174 275.075C246.13 256.61 251.526 251.037 255.267 249.676C258.161 248.619 260.093 249.997 260.174 250.055C260.202 250.076 260.23 250.099 260.254 250.123C270.27 259.762 284.654 265.174 284.799 265.228C316.048 275.932 345.053 257.937 349.125 255.246L344.436 242.52C339.885 243.318 313.739 247.706 306.83 244.531C300.305 241.53 293.514 235.143 287.522 229.507C285.711 227.803 284 226.194 282.427 224.805C276.027 219.155 262.712 207.401 248.51 205.837C237.145 204.587 228.425 202.729 225.352 202.029L225.354 202.031Z" fill="#2D3142"/>
<path d="M222.339 199.496C222.339 199.496 235.529 204.943 239.614 221.967L236.551 227.754L244.382 229.798C244.382 229.798 242.145 254.671 242.145 266.031C242.145 277.391 241.805 285.199 243.507 295.083C245.208 304.967 245.551 319.607 245.551 319.607C245.551 319.607 233.585 299.694 230.229 276.807C227.684 259.446 228.324 222.609 227.358 215.458C226.222 207.059 222.339 199.494 222.339 199.494V199.496Z" fill="white"/>
<path d="M245.551 320.378C245.285 320.378 245.031 320.24 244.889 320.005C244.768 319.805 232.805 299.697 229.467 276.921C227.882 266.106 227.535 248.179 227.258 233.774C227.098 225.435 226.958 218.235 226.597 215.565C225.494 207.401 221.695 199.924 221.655 199.85C221.508 199.564 221.555 199.214 221.774 198.977C221.993 198.739 222.337 198.663 222.633 198.786C223.187 199.014 236.234 204.582 240.364 221.79C240.408 221.972 240.383 222.165 240.294 222.33L237.685 227.258L244.575 229.055C244.938 229.151 245.18 229.495 245.148 229.87C245.125 230.119 242.915 254.839 242.915 266.033C242.915 267.717 242.908 269.323 242.901 270.871C242.86 279.661 242.829 286.603 244.268 294.957C245.96 304.783 246.319 319.446 246.321 319.595C246.328 319.945 246.1 320.257 245.765 320.352C245.693 320.373 245.62 320.382 245.551 320.382V320.378ZM224.006 201.249C225.252 204.098 227.33 209.494 228.122 215.358C228.494 218.117 228.627 225.014 228.797 233.744C229.074 248.104 229.421 265.978 230.992 276.697C233.564 294.252 241.342 310.216 244.671 316.448C244.468 311.592 243.947 302.167 242.748 295.216C241.286 286.728 241.318 279.726 241.36 270.862C241.367 269.318 241.374 267.714 241.374 266.033C241.374 255.796 243.206 234.384 243.556 230.38L236.355 228.501C236.127 228.443 235.941 228.282 235.846 228.066C235.75 227.852 235.76 227.603 235.871 227.396L238.797 221.867C235.746 209.564 227.735 203.484 224.006 201.251V201.249Z" fill="#2D3142"/>
<path d="M196.509 199.496C196.509 199.496 187.426 204.99 173.124 206.563C158.821 208.137 145.368 218.324 138.678 224.23C131.988 230.138 122.863 239.973 114.464 243.833C107.187 247.178 83.78 244.112 83.78 244.112L78.5493 259.441C78.5493 259.441 93.6036 273.383 135.503 265.226C135.503 265.226 151.642 260.544 161.896 250.677C161.896 250.677 169.278 241.33 177.903 276.355L196.509 199.496Z" fill="white"/>
<path d="M177.903 277.126C177.549 277.126 177.239 276.884 177.155 276.539C171.848 254.992 167.183 250.9 164.874 250.379C163.423 250.05 162.534 251.114 162.497 251.158C162.478 251.182 162.453 251.21 162.429 251.231C152.154 261.117 136.383 265.773 135.717 265.966C135.696 265.973 135.673 265.978 135.649 265.982C126.035 267.854 117.825 268.58 110.881 268.58C87.6255 268.58 78.5096 260.454 78.0254 260.007C77.8019 259.8 77.7228 259.481 77.8205 259.194L83.0513 243.865C83.17 243.518 83.5168 243.302 83.88 243.351C84.1128 243.381 107.149 246.351 114.142 243.137C120.439 240.243 127.134 233.946 133.038 228.39C134.858 226.676 136.578 225.058 138.168 223.655C144.942 217.674 158.481 207.402 173.04 205.8C186.988 204.264 196.023 198.893 196.111 198.84C196.377 198.679 196.714 198.695 196.963 198.879C197.215 199.063 197.329 199.38 197.256 199.68L178.65 276.539C178.566 276.884 178.259 277.128 177.903 277.128V277.126ZM164.312 248.775C164.585 248.775 164.874 248.803 165.176 248.87C169.622 249.834 173.894 258.002 177.884 273.161L195.352 201.002C192.161 202.627 184.265 206.112 173.207 207.329C159.07 208.884 145.825 218.948 139.188 224.807C137.614 226.194 135.903 227.805 134.092 229.509C128.1 235.145 121.31 241.533 114.785 244.533C107.978 247.66 88.1702 245.43 84.306 244.955L79.45 259.185C82.0223 261.161 97.931 271.751 135.319 264.479C136.122 264.239 151.549 259.546 161.333 250.151C161.554 249.894 162.615 248.775 164.31 248.775H164.312Z" fill="#2D3142"/>
<path d="M196.509 199.496C196.509 199.496 183.32 204.943 179.234 221.967L182.298 227.754L174.467 229.798C174.467 229.798 176.704 254.671 176.704 266.031C176.704 277.391 177.044 285.199 175.342 295.083C173.64 304.967 173.124 317.91 173.124 317.91C173.124 317.91 186.437 306.534 188.62 276.807C189.905 259.308 190.524 222.609 191.49 215.458C192.626 207.059 196.509 199.494 196.509 199.494V199.496Z" fill="white"/>
<path d="M173.124 318.681C173.01 318.681 172.896 318.655 172.789 318.604C172.514 318.471 172.344 318.187 172.356 317.88C172.36 317.749 172.893 304.772 174.583 294.95C176.022 286.598 175.989 279.656 175.95 270.868C175.943 269.32 175.936 267.714 175.936 266.029C175.936 254.834 173.724 230.112 173.703 229.865C173.671 229.491 173.913 229.146 174.276 229.051L181.167 227.254L178.557 222.325C178.471 222.16 178.445 221.967 178.489 221.785C182.619 204.578 195.667 199.012 196.221 198.781C196.519 198.658 196.863 198.735 197.08 198.972C197.299 199.21 197.345 199.557 197.199 199.845C197.159 199.92 193.36 207.399 192.256 215.561C191.77 219.16 191.36 230.703 190.925 242.927C190.504 254.799 190.024 268.252 189.391 276.863C187.207 306.569 174.181 318.022 173.627 318.494C173.485 318.615 173.305 318.678 173.126 318.678L173.124 318.681ZM175.291 230.378C175.642 234.379 177.472 255.793 177.472 266.031C177.472 267.714 177.479 269.318 177.486 270.864C177.528 279.728 177.561 286.728 176.099 295.213C174.821 302.632 174.211 311.888 173.99 315.915C177.405 312.067 186.134 300.09 187.85 276.751C188.481 268.171 188.958 254.732 189.379 242.874C189.833 230.082 190.227 219.032 190.725 215.356C191.516 209.492 193.593 204.096 194.84 201.247C191.111 203.481 183.101 209.559 180.049 221.862L182.975 227.391C183.085 227.598 183.094 227.845 182.999 228.061C182.903 228.278 182.717 228.436 182.489 228.497L175.289 230.375L175.291 230.378Z" fill="#2D3142"/>
<path d="M194.908 174.451C192.994 173.571 191.993 175.016 189.14 174.609C186.106 174.178 182.775 171.913 181.539 168.619C180.045 164.641 181.185 161.205 182.747 158.086C183.972 155.634 186.763 153.483 189.789 152.357C193.735 150.888 194.731 152.778 199.245 151.398C202.916 150.276 203.295 148.909 206.564 147.997C209.287 147.235 217.6 147.547 218.859 151.891C220.205 156.526 219.162 157.275 220.34 161.198C221.048 163.554 222.177 163.847 222.991 165.667C225.014 170.184 220.803 176.951 215.915 179.579C209.278 183.145 198.214 175.973 194.913 174.455L194.908 174.451Z" fill="#2D3142"/>
<path d="M200.958 182.039L199.359 194.673C198.053 200.313 191.006 202.923 191.006 202.923C202.269 211.582 216.28 210.768 227.64 202.236C227.64 202.236 220.049 200.397 218.45 193.115L215.181 174.478L200.96 182.039H200.958Z" fill="white"/>
<path d="M208.489 209.799C202.173 209.799 195.974 207.716 190.538 203.535C190.317 203.365 190.206 203.086 190.247 202.809C190.289 202.531 190.478 202.299 190.741 202.201C190.808 202.175 197.385 199.673 198.602 194.535L200.197 181.942C200.229 181.692 200.378 181.476 200.599 181.36L214.82 173.799C215.037 173.682 215.298 173.678 215.519 173.787C215.74 173.896 215.896 174.104 215.94 174.346L219.208 192.983C220.682 199.685 227.752 201.47 227.822 201.486C228.11 201.556 228.334 201.787 228.394 202.08C228.455 202.371 228.341 202.671 228.103 202.85C221.944 207.478 215.151 209.797 208.491 209.797L208.489 209.799ZM192.533 203.09C202.599 210.174 215.186 209.943 225.973 202.49C223.559 201.528 218.95 198.984 217.698 193.283L214.606 175.656L201.675 182.533L200.125 194.77C200.122 194.796 200.118 194.822 200.111 194.847C199.065 199.368 194.722 202.019 192.536 203.093L192.533 203.09Z" fill="#2D3142"/>
<path d="M213.554 177.037C213.554 177.037 218.552 175.179 216.697 171.047C214.842 166.915 211.778 169.944 211.778 169.944C211.778 169.944 208.992 159.773 203.016 163.752C197.04 167.73 191.391 169.159 191.391 169.159C191.391 169.159 193.439 179.393 197.175 186.211C199.429 190.324 202.294 193.197 205.693 191.833C215 188.103 213.552 177.037 213.552 177.037H213.554Z" fill="white"/>
<path d="M203.958 192.959C201.326 192.959 198.823 190.825 196.5 186.583C192.75 179.739 190.72 169.734 190.636 169.313C190.555 168.91 190.804 168.517 191.202 168.414C191.258 168.4 196.805 166.964 202.59 163.114C204.189 162.05 205.751 161.789 207.229 162.343C209.939 163.356 211.531 166.903 212.18 168.696C212.814 168.323 213.708 167.979 214.667 168.156C215.807 168.37 216.729 169.236 217.4 170.735C217.986 172.041 218.037 173.291 217.553 174.448C216.857 176.11 215.223 177.1 214.366 177.521C214.508 179.93 214.466 189.151 205.981 192.552C205.299 192.824 204.624 192.962 203.958 192.962V192.959ZM192.296 169.704C192.829 172.109 194.77 180.219 197.852 185.843C200.327 190.361 202.869 192.14 205.409 191.12C214.061 187.654 212.804 177.242 212.793 177.137C212.746 176.781 212.951 176.441 213.286 176.315C213.307 176.308 215.456 175.482 216.138 173.845C216.452 173.086 216.408 172.276 215.998 171.364C215.547 170.356 215.004 169.785 214.392 169.669C213.559 169.511 212.613 170.211 212.322 170.495C212.127 170.686 211.845 170.758 211.582 170.689C211.319 170.616 211.112 170.414 211.04 170.151C211.026 170.097 209.55 164.85 206.691 163.782C205.69 163.407 204.629 163.607 203.446 164.394C198.604 167.618 194.025 169.185 192.298 169.704H192.296Z" fill="#2D3142"/>
<path d="M61.6815 190.622C70.8859 184.882 75.6557 177.379 77.9836 162.394C79.5642 167.672 80.0531 171.599 79.2639 175.754L84.2712 172.965C84.3876 177.032 83.5984 181.942 80.1951 185.047L86.4826 182.142C83.3656 189.032 79.7295 201.889 65.9881 196.197L61.6792 190.622H61.6815Z" fill="#FFCE36"/>
<path d="M72.299 198.395C70.3785 198.395 68.195 197.946 65.6972 196.912C65.5738 196.861 65.4644 196.777 65.3829 196.672L61.0741 191.097C60.9414 190.925 60.8855 190.704 60.9251 190.49C60.9646 190.275 61.0904 190.087 61.2766 189.973C70.6765 184.109 74.9994 176.604 77.2248 162.28C77.2807 161.924 77.574 161.657 77.9325 161.631C78.2863 161.598 78.6192 161.833 78.7216 162.178C80.1998 167.111 80.677 170.763 80.265 174.32L83.8988 172.297C84.1339 172.167 84.4203 172.167 84.653 172.302C84.8882 172.435 85.0348 172.679 85.0418 172.949C85.1279 175.933 84.7555 179.786 82.8606 182.973L86.1615 181.448C86.4525 181.313 86.797 181.374 87.0275 181.599C87.2556 181.825 87.3185 182.17 87.1858 182.463C86.8762 183.15 86.5596 183.897 86.229 184.677C83.8243 190.361 80.4233 198.395 72.299 198.395ZM66.4747 195.567C77.9837 200.22 81.7688 191.274 84.8137 184.076C84.8672 183.946 84.9231 183.818 84.9766 183.69L80.5211 185.748C80.1765 185.906 79.7668 185.79 79.5573 185.475C79.3478 185.159 79.399 184.737 79.6807 184.481C82.6394 181.783 83.4356 177.654 83.5101 174.276L79.6435 176.429C79.3827 176.576 79.0615 176.555 78.8194 176.38C78.5773 176.206 78.4586 175.905 78.5145 175.612C79.0778 172.635 78.98 169.69 78.142 165.975C75.7443 178.122 71.2631 185.319 62.8107 190.82L66.477 195.567H66.4747Z" fill="#FFCE36"/>
<path d="M32.3387 194.456C23.1343 188.716 18.3645 181.213 16.0366 166.229C14.456 171.506 13.9672 175.433 14.7563 179.588L9.74907 176.799C9.63268 180.866 10.4218 185.776 13.8252 188.881L7.5376 185.976C10.6546 192.866 14.2907 205.723 28.0322 200.031L32.341 194.456H32.3387Z" fill="#FFCE36"/>
<path d="M21.7214 202.227C13.5948 202.227 10.1961 194.193 7.79138 188.506C7.46083 187.726 7.14424 186.979 6.83463 186.292C6.70194 185.999 6.76479 185.655 6.99292 185.429C7.22106 185.203 7.56791 185.14 7.85889 185.277L11.1598 186.802C9.26492 183.615 8.89247 179.763 8.9786 176.778C8.98558 176.511 9.13456 176.264 9.36735 176.131C9.60014 175.999 9.88647 175.999 10.1216 176.127L13.7554 178.149C13.3434 174.59 13.8182 170.938 15.2988 166.007C15.4012 165.663 15.7294 165.432 16.0879 165.46C16.4464 165.486 16.742 165.754 16.7956 166.11C19.021 180.433 23.3439 187.938 32.7438 193.802C32.9277 193.918 33.0557 194.105 33.093 194.319C33.1326 194.533 33.0767 194.754 32.944 194.926L28.6351 200.502C28.5536 200.609 28.4442 200.69 28.3209 200.741C25.8231 201.775 23.6372 202.224 21.7167 202.224L21.7214 202.227ZM9.0461 187.521C9.09965 187.65 9.15551 187.778 9.20906 187.908C12.2539 195.106 16.0437 204.049 27.548 199.398L31.2144 194.652C22.7642 189.149 18.2808 181.953 15.8831 169.806C15.045 173.522 14.9473 176.466 15.5106 179.444C15.5665 179.737 15.4477 180.037 15.2056 180.212C14.9635 180.387 14.6423 180.405 14.3816 180.261L10.5127 178.108C10.5872 181.485 11.3833 185.615 14.342 188.313C14.6237 188.569 14.6749 188.99 14.4654 189.307C14.2559 189.621 13.8438 189.74 13.5016 189.579L9.0461 187.521Z" fill="#FFCE36"/>
<path d="M47.7004 223.364C59.7097 223.364 69.4451 213.651 69.4451 201.67C69.4451 189.689 59.7097 179.977 47.7004 179.977C35.6912 179.977 25.9558 189.689 25.9558 201.67C25.9558 213.651 35.6912 223.364 47.7004 223.364Z" fill="#2D3142"/>
<path d="M48.5524 221.976C60.2055 221.976 69.6522 212.553 69.6522 200.928C69.6522 189.303 60.2055 179.879 48.5524 179.879C36.8993 179.879 27.4526 189.303 27.4526 200.928C27.4526 212.553 36.8993 221.976 48.5524 221.976Z" fill="#FFE28A"/>
<path d="M48.5362 222.747C37.5626 222.747 28.0765 214.499 26.8218 203.37C26.1677 197.578 27.8135 191.879 31.4566 187.321C35.0997 182.766 40.3025 179.898 46.1059 179.246C58.0851 177.898 68.9353 186.53 70.2855 198.486C70.9396 204.278 69.2938 209.976 65.6507 214.534C62.0075 219.09 56.8048 221.958 51.0014 222.61C50.175 222.703 49.3509 222.749 48.5385 222.749L48.5362 222.747ZM48.5664 180.647C47.8099 180.647 47.0463 180.689 46.2758 180.775C40.8798 181.383 36.0425 184.048 32.6578 188.283C29.2731 192.517 27.7436 197.813 28.3512 203.195C29.6059 214.308 39.6949 222.326 50.8291 221.078C56.2251 220.47 61.0624 217.805 64.4495 213.57C67.8342 209.336 69.3636 204.04 68.756 198.658C67.5875 188.315 58.7672 180.647 48.5688 180.647H48.5664Z" fill="#2D3142"/>
<path d="M48.5525 218.592C58.3311 218.592 66.2582 210.683 66.2582 200.928C66.2582 191.172 58.3311 183.264 48.5525 183.264C38.7738 183.264 30.8467 191.172 30.8467 200.928C30.8467 210.683 38.7738 218.592 48.5525 218.592Z" fill="white"/>
<path d="M64.419 209.543C64.3026 209.543 64.1862 209.518 64.0768 209.462C63.6974 209.273 63.5414 208.81 63.73 208.428C64.4516 206.982 64.9568 205.444 65.2361 203.858C65.3106 203.439 65.7133 203.16 66.1277 203.232C66.5467 203.307 66.826 203.705 66.7516 204.124C66.4466 205.856 65.8926 207.534 65.1057 209.115C64.9707 209.385 64.6984 209.541 64.4167 209.541L64.419 209.543Z" fill="#2D3142"/>
<path d="M33.1815 192.924C33.0512 192.924 32.9185 192.892 32.7974 192.822C32.4296 192.61 32.3016 192.14 32.5134 191.77C35.4349 186.688 40.6563 183.264 46.483 182.607C53.576 181.807 60.3547 185.054 64.1748 191.076C64.4029 191.435 64.2958 191.912 63.9373 192.138C63.5788 192.366 63.1016 192.259 62.8758 191.9C59.3747 186.381 53.1616 183.406 46.6575 184.137C41.3151 184.737 36.529 187.878 33.8519 192.536C33.7099 192.785 33.4492 192.922 33.1838 192.922L33.1815 192.924Z" fill="#2D3142"/>
<path d="M48.5384 219.362C39.2688 219.362 31.254 212.395 30.1925 202.99C29.8386 199.852 30.2972 196.665 31.5217 193.774C31.687 193.383 32.1386 193.199 32.5297 193.364C32.9207 193.53 33.1046 193.981 32.9394 194.372C31.8197 197.021 31.3983 199.943 31.7219 202.818C32.7671 212.073 41.1637 218.759 50.4473 217.714C50.8779 217.663 51.2504 217.97 51.2993 218.394C51.3458 218.817 51.0432 219.197 50.6195 219.246C49.9212 219.325 49.2251 219.362 48.5384 219.362Z" fill="#2D3142"/>
<path d="M48.3383 213.503L48.0124 210.616C45.9615 210.754 43.9223 210.43 42.6886 209.892L43.2007 206.235C44.5578 206.789 46.4271 207.227 48.4058 207.003C50.1424 206.808 51.2528 206.007 51.1154 204.792C50.9851 203.637 49.9282 203.018 47.5887 202.513C44.2063 201.787 41.8133 200.516 41.4804 197.571C41.1778 194.898 42.8306 192.589 46.0151 191.586L45.6892 188.699L48.6735 188.364L48.9761 191.037C51.027 190.899 52.4447 191.169 53.5038 191.544L53.008 195.075C52.1793 194.831 50.6988 194.289 48.5059 194.535C46.5272 194.759 45.9825 195.681 46.0803 196.53C46.1943 197.534 47.3303 198.05 50.0283 198.732C53.7948 199.601 55.4453 201.107 55.7549 203.842C56.0598 206.545 54.4024 209.071 50.9688 210.072L51.318 213.17L48.3336 213.505L48.3383 213.503Z" fill="#FFCE36"/>
<path d="M396.545 196.54C404.428 203.984 407.612 212.281 406.921 227.43C409.519 222.57 410.776 218.817 410.829 214.59L415.185 218.312C416.107 214.35 416.307 209.38 413.588 205.665L419.175 209.755C417.487 202.385 416.474 189.065 401.876 191.928L396.545 196.542V196.54Z" fill="#FFCE36"/>
<path d="M406.921 228.199C406.853 228.199 406.783 228.189 406.716 228.171C406.369 228.075 406.134 227.752 406.15 227.393C406.811 212.914 404.067 204.703 396.015 197.098C395.856 196.949 395.768 196.74 395.773 196.521C395.777 196.305 395.873 196.097 396.038 195.955L401.369 191.342C401.471 191.253 401.592 191.193 401.725 191.169C415.606 188.441 417.904 199.743 419.424 207.22C419.594 208.051 419.754 208.845 419.922 209.578C419.994 209.892 419.864 210.216 419.594 210.393C419.326 210.57 418.974 210.56 418.716 210.372L415.783 208.226C417.007 211.727 416.607 215.577 415.93 218.484C415.869 218.747 415.676 218.957 415.42 219.041C415.164 219.125 414.884 219.069 414.68 218.894L411.518 216.191C411.216 219.76 410.024 223.247 407.596 227.789C407.459 228.045 407.195 228.196 406.916 228.196L406.921 228.199ZM397.686 196.57C404.877 203.633 407.843 211.573 407.78 223.953C409.339 220.477 410.019 217.609 410.056 214.578C410.061 214.28 410.236 214.01 410.508 213.887C410.78 213.764 411.099 213.808 411.325 214.003L414.689 216.878C415.287 213.552 415.327 209.348 412.962 206.116C412.738 205.809 412.771 205.386 413.038 205.118C413.306 204.848 413.732 204.818 414.037 205.041L417.997 207.939C417.969 207.802 417.941 207.667 417.913 207.527C416.358 199.871 414.417 190.352 402.218 192.643L397.681 196.57H397.686Z" fill="#FFCE36"/>
<path d="M368.716 187.107C358.256 190.008 351.55 195.851 345.055 209.562C345.039 204.054 345.688 200.15 347.625 196.388L342.031 197.645C343.076 193.714 345.23 189.228 349.376 187.214L342.52 188.22C347.467 182.496 354.611 171.194 366.169 180.54L368.716 187.107Z" fill="#FFCE36"/>
<path d="M345.055 210.332C345 210.332 344.944 210.325 344.888 210.314C344.536 210.234 344.287 209.925 344.285 209.564C344.271 204.417 344.851 200.779 346.259 197.485L342.201 198.397C341.938 198.455 341.664 198.374 341.477 198.181C341.291 197.988 341.219 197.711 341.289 197.45C342.055 194.563 343.507 190.976 346.229 188.455L342.632 188.983C342.306 189.03 341.999 188.874 341.845 188.592C341.692 188.311 341.727 187.961 341.938 187.719C342.432 187.149 342.946 186.523 343.486 185.866C348.335 179.968 355.666 171.056 366.656 179.944C366.76 180.028 366.84 180.14 366.888 180.266L369.435 186.832C369.514 187.035 369.503 187.261 369.405 187.456C369.307 187.652 369.133 187.794 368.923 187.852C358.243 190.815 351.962 196.789 345.754 209.895C345.623 210.167 345.351 210.335 345.058 210.335L345.055 210.332ZM347.625 195.62C347.86 195.62 348.086 195.727 348.235 195.92C348.419 196.156 348.447 196.477 348.312 196.744C346.925 199.44 346.18 202.292 345.928 206.091C351.683 195.12 358.026 189.489 367.694 186.604L365.527 181.015C355.817 173.298 349.641 180.806 344.674 186.844C344.585 186.953 344.497 187.061 344.408 187.168L349.264 186.455C349.639 186.399 350 186.628 350.112 186.991C350.223 187.354 350.053 187.745 349.711 187.91C346.108 189.661 344.168 193.392 343.137 196.612L347.458 195.641C347.514 195.629 347.569 195.622 347.628 195.622L347.625 195.62Z" fill="#FFCE36"/>
<path d="M381.885 220.072C394.776 220.072 405.226 209.648 405.226 196.789C405.226 183.93 394.776 173.505 381.885 173.505C368.993 173.505 358.543 183.93 358.543 196.789C358.543 209.648 368.993 220.072 381.885 220.072Z" fill="#2D3142"/>
<path d="M382.986 218.871C395.494 218.871 405.634 208.756 405.634 196.279C405.634 183.802 395.494 173.687 382.986 173.687C370.478 173.687 360.338 183.802 360.338 196.279C360.338 208.756 370.478 218.871 382.986 218.871Z" fill="#FFE28A"/>
<path d="M382.997 219.644C381.668 219.644 380.323 219.53 378.97 219.295C372.808 218.224 367.433 214.823 363.834 209.72C360.235 204.615 358.843 198.418 359.917 192.27C362.13 179.579 374.286 171.054 387.004 173.261C393.166 174.332 398.541 177.73 402.139 182.835C405.738 187.94 407.13 194.137 406.057 200.285C404.079 211.627 394.162 219.641 382.997 219.641V219.644ZM382.974 174.453C372.543 174.453 363.283 181.942 361.432 192.536C360.429 198.279 361.73 204.066 365.091 208.833C368.453 213.601 373.476 216.778 379.233 217.779C391.117 219.844 402.47 211.878 404.539 200.022C405.543 194.279 404.242 188.492 400.88 183.725C397.519 178.957 392.495 175.78 386.738 174.781C385.474 174.562 384.215 174.455 382.974 174.455V174.453Z" fill="#2D3142"/>
<path d="M382.986 215.239C393.483 215.239 401.993 206.751 401.993 196.279C401.993 185.807 393.483 177.318 382.986 177.318C372.488 177.318 363.979 185.807 363.979 196.279C363.979 206.751 372.488 215.239 382.986 215.239Z" fill="white"/>
<path d="M396.962 209.902C396.773 209.902 396.587 209.834 396.438 209.697C396.126 209.408 396.108 208.922 396.396 208.61C397.579 207.332 398.568 205.898 399.339 204.34C399.527 203.961 399.988 203.805 400.37 203.991C400.752 204.18 400.908 204.641 400.719 205.022C399.883 206.71 398.808 208.267 397.525 209.655C397.374 209.818 397.167 209.902 396.96 209.902H396.962Z" fill="#2D3142"/>
<path d="M401.262 191.828C400.926 191.828 400.619 191.609 400.521 191.272C398.575 184.512 393.056 179.563 386.114 178.357C380.411 177.367 374.512 179.167 370.333 183.175C370.029 183.471 369.54 183.462 369.246 183.152C368.951 182.845 368.962 182.358 369.27 182.065C373.8 177.719 380.197 175.766 386.38 176.841C393.791 178.129 399.925 183.625 402.004 190.846C402.123 191.253 401.885 191.681 401.478 191.798C401.406 191.819 401.336 191.828 401.264 191.828H401.262Z" fill="#2D3142"/>
<path d="M379.727 215.726C379.682 215.726 379.638 215.721 379.594 215.714C374.391 214.811 369.852 211.939 366.812 207.63C363.771 203.318 362.598 198.085 363.504 192.894C364.086 189.565 365.517 186.427 367.643 183.825C367.913 183.497 368.397 183.448 368.727 183.715C369.056 183.985 369.104 184.47 368.837 184.8C366.877 187.2 365.557 190.091 365.021 193.16C364.186 197.946 365.268 202.771 368.071 206.745C370.874 210.719 375.059 213.368 379.859 214.201C380.278 214.273 380.56 214.671 380.485 215.09C380.42 215.465 380.094 215.728 379.729 215.728L379.727 215.726Z" fill="#2D3142"/>
<path d="M378.966 209.168L379.501 206.098C377.348 205.623 375.343 204.676 374.235 203.751L375.867 200.139C377.099 201.119 378.891 202.129 380.998 202.494C382.844 202.816 384.234 202.324 384.459 201.03C384.674 199.801 383.773 198.847 381.515 197.622C378.251 195.855 376.167 193.83 376.715 190.694C377.21 187.85 379.61 185.969 383.195 185.892L383.731 182.822L386.906 183.373L386.41 186.218C388.563 186.693 389.944 187.398 390.922 188.101L389.343 191.591C388.563 191.088 387.202 190.087 384.869 189.682C382.762 189.316 381.924 190.103 381.766 191.009C381.58 192.075 382.595 192.95 385.169 194.463C388.789 196.491 390.032 198.539 389.525 201.447C389.022 204.324 386.552 206.426 382.713 206.424L382.138 209.72L378.963 209.168H378.966Z" fill="#FFCE36"/>
<path d="M231.63 97.0419C243.02 89.9372 248.921 80.6537 251.803 62.1099C253.761 68.6395 254.364 73.5001 253.388 78.6401L259.585 75.1902C259.73 80.2207 258.752 86.2987 254.541 90.1397L262.323 86.5455C258.466 95.0725 253.966 110.983 236.961 103.939L231.63 97.0395V97.0419Z" fill="#FFCE36"/>
<path d="M244.74 106.465C242.392 106.465 239.719 105.916 236.667 104.652C236.544 104.6 236.435 104.517 236.353 104.412L231.022 97.5121C230.89 97.3398 230.834 97.1186 230.873 96.9045C230.913 96.6903 231.039 96.5018 231.225 96.3877C242.908 89.0991 248.281 79.776 251.044 61.9911C251.1 61.6349 251.393 61.3672 251.752 61.3416C252.103 61.3114 252.439 61.5441 252.541 61.8887C254.413 68.132 254.981 72.7086 254.399 77.1967L259.21 74.5174C259.446 74.387 259.732 74.387 259.965 74.5197C260.2 74.6524 260.346 74.8991 260.353 75.1668C260.463 78.9962 259.962 83.9871 257.36 87.9887L261.999 85.8471C262.29 85.7121 262.637 85.7726 262.865 85.9984C263.093 86.2242 263.156 86.5687 263.024 86.8621C262.639 87.7094 262.251 88.6312 261.839 89.6066C258.885 96.5902 254.706 106.463 244.74 106.463V106.465ZM237.445 103.306C251.889 109.172 256.817 97.5237 260.421 89.0083C260.551 88.6987 260.682 88.3938 260.807 88.0935L254.864 90.8381C254.52 90.9987 254.11 90.8823 253.901 90.5657C253.691 90.2491 253.742 89.8278 254.024 89.5717C257.825 86.1032 258.777 80.77 258.829 76.4937L253.766 79.3128C253.505 79.4571 253.184 79.4385 252.941 79.2639C252.699 79.0893 252.581 78.789 252.637 78.4957C253.381 74.5639 253.202 70.6834 251.98 65.6598C249.049 81.2286 243.474 90.3166 232.759 97.2374L237.447 103.306H237.445Z" fill="#FFCE36"/>
<path d="M197.089 91.0639C183.331 82.481 176.201 71.2677 172.719 48.8666C170.356 56.7557 169.627 62.6266 170.803 68.8374L163.319 64.6705C163.144 70.7485 164.324 78.0906 169.411 82.7301L160.011 78.3886C164.669 88.6871 170.107 107.911 190.648 99.4L197.089 91.0639Z" fill="#FFCE36"/>
<path d="M181.276 102.282C169.313 102.282 164.294 90.4167 160.744 82.0224C160.246 80.8445 159.773 79.7295 159.31 78.7052C159.177 78.4119 159.242 78.0674 159.468 77.8416C159.696 77.6158 160.041 77.5529 160.334 77.6902L166.459 80.5186C163.058 75.6441 162.413 69.4007 162.55 64.6472C162.557 64.3795 162.706 64.1327 162.939 64C163.172 63.8674 163.458 63.865 163.693 63.9954L169.785 67.3871C169.017 61.884 169.685 56.3088 171.983 48.6454C172.085 48.3009 172.418 48.0635 172.772 48.0984C173.13 48.124 173.426 48.3917 173.48 48.7479C176.827 70.2876 183.336 81.5778 197.496 90.4121C197.68 90.5261 197.808 90.7147 197.845 90.9288C197.885 91.143 197.829 91.3641 197.696 91.5364L191.255 99.8725C191.174 99.9796 191.064 100.061 190.941 100.112C187.289 101.625 184.088 102.284 181.273 102.284L181.276 102.282ZM161.531 79.9366C161.738 80.4185 161.947 80.9143 162.162 81.4218C166.545 91.7785 172.537 105.948 190.166 98.7644L195.965 91.2617C182.803 82.8116 176.045 71.675 172.535 52.4003C170.893 58.8415 170.621 63.73 171.561 68.6907C171.617 68.984 171.499 69.2843 171.257 69.4589C171.014 69.6335 170.693 69.6521 170.432 69.5078L164.075 65.9671C164.098 71.2095 165.216 77.8555 169.932 82.1574C170.214 82.4135 170.265 82.8348 170.055 83.1514C169.846 83.4657 169.436 83.5844 169.092 83.4238L161.533 79.9343L161.531 79.9366Z" fill="#FFCE36"/>
<path d="M210.702 127.94C227.554 127.94 241.216 114.312 241.216 97.5005C241.216 80.6894 227.554 67.0613 210.702 67.0613C193.85 67.0613 180.188 80.6894 180.188 97.5005C180.188 114.312 193.85 127.94 210.702 127.94Z" fill="#2D3142"/>
<path d="M212.006 126.133C228.357 126.133 241.612 112.91 241.612 96.5973C241.612 80.285 228.357 67.0613 212.006 67.0613C195.655 67.0613 182.4 80.285 182.4 96.5973C182.4 112.91 195.655 126.133 212.006 126.133Z" fill="#FFE28A"/>
<path d="M212.006 126.902C195.257 126.902 181.63 113.307 181.63 96.5973C181.63 79.8879 195.257 66.2908 212.006 66.2908C228.755 66.2908 242.383 79.8855 242.383 96.5973C242.383 113.309 228.755 126.902 212.006 126.902ZM212.006 67.8318C196.105 67.8318 183.169 80.7352 183.169 96.5973C183.169 112.459 196.105 125.363 212.006 125.363C227.908 125.363 240.844 112.459 240.844 96.5973C240.844 80.7352 227.908 67.8318 212.006 67.8318Z" fill="#2D3142"/>
<path d="M212.006 121.384C225.728 121.384 236.851 110.287 236.851 96.5972C236.851 82.9076 225.728 71.8101 212.006 71.8101C198.284 71.8101 187.161 82.9076 187.161 96.5972C187.161 110.287 198.284 121.384 212.006 121.384Z" fill="white"/>
<path d="M232.894 110.793C232.75 110.793 232.605 110.753 232.477 110.669C232.119 110.439 232.019 109.962 232.249 109.605C233.499 107.673 234.461 105.583 235.108 103.388C235.229 102.98 235.657 102.745 236.065 102.866C236.472 102.987 236.705 103.416 236.586 103.823C235.897 106.16 234.873 108.386 233.544 110.441C233.397 110.669 233.148 110.793 232.896 110.793H232.894Z" fill="#2D3142"/>
<path d="M234.37 86.5548C234.083 86.5548 233.811 86.3965 233.676 86.1218C229.612 77.7694 221.306 72.5806 212.004 72.5806C204.361 72.5806 197.098 76.2563 192.573 82.4135C192.321 82.7557 191.84 82.8302 191.497 82.5788C191.155 82.3274 191.081 81.8455 191.332 81.5033C196.146 74.9527 203.872 71.0442 212.004 71.0442C221.75 71.0442 230.801 76.6986 235.059 85.4514C235.245 85.8331 235.087 86.2941 234.703 86.4803C234.593 86.5338 234.479 86.5571 234.367 86.5571L234.37 86.5548Z" fill="#2D3142"/>
<path d="M212.006 122.153C197.88 122.153 186.39 110.688 186.39 96.5973C186.39 92.2186 187.519 87.9004 189.654 84.1059C189.863 83.7358 190.334 83.6055 190.701 83.8126C191.071 84.0222 191.204 84.4901 190.995 84.8602C188.988 88.4242 187.929 92.484 187.929 96.5973C187.929 109.841 198.73 120.614 212.006 120.614C212.432 120.614 212.777 120.958 212.777 121.384C212.777 121.81 212.432 122.155 212.006 122.155V122.153Z" fill="#2D3142"/>
<path d="M209.727 114.098V110.024C206.845 109.896 204.052 109.123 202.417 108.181L203.707 103.162C205.514 104.149 208.051 105.05 210.844 105.05C213.296 105.05 214.972 104.107 214.972 102.391C214.972 100.676 213.596 99.7329 210.414 98.6597C205.814 97.1163 202.674 94.97 202.674 90.8101C202.674 87.0367 205.339 84.0756 209.939 83.1747V79.101H214.152V82.8744C217.034 83.0025 218.969 83.6031 220.386 84.2898L219.139 89.1364C218.021 88.6638 216.043 87.6792 212.946 87.6792C210.153 87.6792 209.25 88.8803 209.25 90.0815C209.25 91.4969 210.754 92.3977 214.408 93.7712C219.525 95.573 221.587 97.9311 221.587 101.793C221.587 105.655 218.878 108.87 213.933 109.729V114.103H209.72L209.727 114.098Z" fill="#FFCE36"/>
<path d="M39.3317 312.572H35.0042C33.8356 312.572 32.8882 313.52 32.8882 314.688H41.4478C41.4478 313.52 40.5003 312.572 39.3317 312.572Z" fill="#FFCE36"/>
<path d="M74.0099 312.572H69.6824C68.5138 312.572 67.5664 313.52 67.5664 314.688H76.126C76.126 313.52 75.1785 312.572 74.0099 312.572Z" fill="#FFCE36"/>
<path d="M72.8809 312.458L73.5793 308.317C74.0728 305.379 72.0941 302.998 69.1563 302.998H43.2099C40.2721 302.998 37.4903 305.379 36.9968 308.317L36.3008 312.458H38.2865L38.8288 309.234C39.2129 306.948 41.3779 305.095 43.6638 305.095H67.997C70.283 305.095 71.8241 306.948 71.44 309.234L70.8976 312.458H72.8832H72.8809Z" fill="white"/>
<path d="M67.8668 301.284H45.0746C44.1551 301.284 43.2868 302.029 43.1308 302.947L42.7956 304.937C42.642 305.856 43.2612 306.599 44.1784 306.599H66.9705C67.89 306.599 68.7583 305.854 68.9143 304.937L69.2495 302.947C69.4032 302.027 68.7839 301.284 67.8668 301.284Z" fill="#FFE28A"/>
<path d="M80.1741 378.898H13.5342C9.53489 378.898 6.54126 375.227 7.3467 371.309L17.4566 322.161C18.3063 318.029 21.9448 315.061 26.1652 315.061H83.326L80.1741 378.898Z" fill="#FFE28A"/>
<path d="M80.1741 379.666H13.5342C11.3949 379.666 9.39289 378.716 8.0404 377.057C6.68791 375.399 6.16181 373.246 6.59246 371.151L16.7024 322.005C17.6219 317.535 21.6002 314.29 26.1629 314.29H83.3237C83.5355 314.29 83.7357 314.376 83.8823 314.53C84.0267 314.684 84.1035 314.889 84.0942 315.098L80.9423 378.935C80.9213 379.345 80.5838 379.666 80.1741 379.666ZM26.1652 315.829C22.3289 315.829 18.9837 318.557 18.2109 322.312L8.10092 371.46C7.76338 373.102 8.17774 374.785 9.23459 376.084C10.2938 377.383 11.8604 378.125 13.5342 378.125H79.4431L82.5182 315.829H26.1652Z" fill="#2D3142"/>
<path d="M88.708 378.898H75.7767C71.7751 378.898 68.7838 375.227 69.5892 371.309L80.7257 317.177C80.9795 315.945 82.0619 315.063 83.319 315.063H86.6455C88.0236 315.063 89.1712 316.122 89.2853 317.496L93.8409 373.334C94.0854 376.33 91.7179 378.898 88.7127 378.898H88.708Z" fill="#FFCE36"/>
<path d="M88.7082 379.666H75.7745C73.6352 379.666 71.6332 378.716 70.2831 377.057C68.9306 375.399 68.4045 373.246 68.8351 371.151L79.9717 317.019C80.2976 315.438 81.7036 314.29 83.3191 314.29H86.6457C88.4125 314.29 89.907 315.668 90.0513 317.431L94.607 373.271C94.7397 374.915 94.1763 376.551 93.0613 377.762C91.9439 378.972 90.3586 379.668 88.7128 379.668L88.7082 379.666ZM83.3168 315.829C82.4299 315.829 81.657 316.46 81.4778 317.328L70.3413 371.46C70.0037 373.102 70.4181 374.787 71.4749 376.084C72.5318 377.38 74.1008 378.125 75.7745 378.125H88.7082C89.9443 378.125 91.0872 377.625 91.9253 376.714C92.7633 375.804 93.1707 374.626 93.0706 373.393L88.5149 317.552C88.4358 316.583 87.6141 315.827 86.6433 315.827H83.3168V315.829Z" fill="#2D3142"/>
<path d="M63.3926 341.629H24.054C23.628 341.629 23.2834 341.284 23.2834 340.858C23.2834 340.432 23.628 340.088 24.054 340.088H63.3926C64.5868 340.088 65.6134 339.275 65.8904 338.114L69.3869 323.357C69.4847 322.943 69.899 322.687 70.3134 322.785C70.7277 322.882 70.9838 323.297 70.886 323.711L67.3896 338.467C66.9473 340.327 65.3061 341.626 63.3926 341.626V341.629Z" fill="#2D3142"/>
<path d="M50.9569 340.861L49.495 346.757C49.2599 347.753 48.3684 348.459 47.3441 348.459H37.0107C35.8863 348.459 35.0716 347.386 35.3719 346.301L36.885 340.861H50.9569Z" fill="white"/>
<path d="M47.3441 349.227H37.0107C36.2308 349.227 35.5139 348.871 35.0436 348.251C34.5734 347.63 34.4221 346.845 34.6316 346.094L36.1447 340.653C36.2378 340.32 36.5404 340.09 36.8873 340.09H50.9593C51.1967 340.09 51.4202 340.199 51.5668 340.386C51.7135 340.572 51.7647 340.816 51.7088 341.044L50.2469 346.941C49.928 348.284 48.7362 349.227 47.3487 349.227H47.3441ZM37.4693 341.629L36.1121 346.506C36.033 346.787 36.0912 347.085 36.2681 347.318C36.445 347.553 36.715 347.686 37.0083 347.686H47.3418C48.0122 347.686 48.5895 347.23 48.7431 346.578L49.9699 341.629H37.4669H37.4693Z" fill="#2D3142"/>
<path d="M61.1974 374.729H16.0391C15.6131 374.729 15.2686 374.384 15.2686 373.958C15.2686 373.532 15.6131 373.188 16.0391 373.188H61.1997C61.6257 373.188 61.9703 373.532 61.9703 373.958C61.9703 374.384 61.6257 374.729 61.1997 374.729H61.1974Z" fill="#2D3142"/>
<path d="M75.6533 374.729C75.3856 374.729 75.1249 374.589 74.9829 374.34C74.7734 373.97 74.9014 373.5 75.2716 373.29L83.8148 368.423V318.876C83.8148 318.45 84.1594 318.106 84.5854 318.106C85.0114 318.106 85.3559 318.45 85.3559 318.876V368.87C85.3559 369.147 85.2069 369.4 84.9671 369.538L76.0328 374.629C75.9117 374.696 75.7814 374.729 75.6533 374.729Z" fill="#FFE28A"/>
<path d="M395.126 348.336C405.014 341.591 407.593 328.153 400.886 318.321C394.18 308.49 380.727 305.987 370.839 312.732C360.951 319.477 358.372 332.916 365.079 342.747C371.786 352.579 385.238 355.081 395.126 348.336Z" fill="white"/>
<path d="M382.881 352.872C381.591 352.872 380.288 352.761 378.977 352.53C373.087 351.492 367.968 348.224 364.563 343.328C361.157 338.435 359.872 332.499 360.945 326.619C363.159 314.481 374.845 306.352 386.996 308.494C392.886 309.532 398.005 312.8 401.411 317.696C404.816 322.589 406.101 328.525 405.028 334.405C403.054 345.232 393.54 352.872 382.883 352.872H382.881ZM383.09 309.69C373.162 309.69 364.297 316.807 362.458 326.896C361.46 332.371 362.656 337.895 365.825 342.451C368.995 347.006 373.76 350.049 379.242 351.015C390.56 353.012 401.448 345.437 403.51 334.131C404.509 328.656 403.313 323.132 400.144 318.576C396.974 314.02 392.209 310.978 386.726 310.012C385.504 309.795 384.289 309.693 383.088 309.693L383.09 309.69Z" fill="#2D3142"/>
<path d="M396.152 322.193L388.638 324.957C388.249 325.099 388.147 325.604 388.449 325.885L389.336 326.714C389.56 326.924 389.574 327.275 389.364 327.499L385.325 331.84C385.116 332.066 384.764 332.077 384.539 331.868L379.373 327.063C379.147 326.854 378.796 326.868 378.586 327.091L369.584 336.715C369.375 336.94 369.389 337.292 369.612 337.501L371.5 339.259C371.726 339.468 372.077 339.454 372.287 339.231L378.775 332.313C378.984 332.087 379.336 332.075 379.562 332.285L384.725 337.087C384.951 337.297 385.302 337.283 385.512 337.059L392.058 330.022C392.267 329.796 392.619 329.785 392.844 329.994L393.801 330.888C394.106 331.172 394.604 331.032 394.716 330.63L396.874 322.868C396.995 322.431 396.571 322.04 396.145 322.198L396.152 322.193Z" fill="#FFCE36"/>
<path d="M359.398 376.513C365.508 372.344 367.101 364.038 362.955 357.963C358.809 351.887 350.495 350.343 344.384 354.513C338.274 358.682 336.681 366.988 340.827 373.063C344.973 379.138 353.287 380.683 359.398 376.513Z" fill="white"/>
<path d="M351.818 379.666C351.005 379.666 350.181 379.596 349.353 379.45C345.635 378.793 342.404 376.731 340.255 373.642C338.107 370.552 337.294 366.807 337.972 363.094C339.368 355.433 346.741 350.305 354.411 351.657C358.129 352.314 361.36 354.376 363.508 357.465C365.657 360.554 366.469 364.3 365.792 368.013C364.547 374.845 358.543 379.666 351.818 379.666ZM351.946 352.982C345.949 352.982 340.597 357.279 339.487 363.371C338.884 366.677 339.606 370.012 341.519 372.762C343.433 375.513 346.31 377.35 349.62 377.932C356.46 379.14 363.031 374.563 364.277 367.733C364.879 364.428 364.158 361.092 362.244 358.343C360.331 355.591 357.454 353.755 354.143 353.173C353.405 353.042 352.672 352.979 351.946 352.979V352.982Z" fill="#2D3142"/>
<path d="M360.021 360.412L355.377 362.119C355.137 362.207 355.075 362.519 355.261 362.694L355.808 363.206C355.948 363.336 355.955 363.553 355.824 363.692L353.329 366.374C353.198 366.514 352.982 366.521 352.842 366.393L349.651 363.422C349.511 363.292 349.295 363.301 349.164 363.441L343.601 369.389C343.47 369.528 343.479 369.745 343.619 369.875L344.785 370.96C344.925 371.09 345.142 371.081 345.272 370.941L349.283 366.665C349.413 366.525 349.63 366.518 349.769 366.646L352.961 369.614C353.101 369.745 353.317 369.735 353.447 369.596L357.493 365.247C357.624 365.108 357.84 365.101 357.98 365.231L358.571 365.783C358.76 365.96 359.067 365.871 359.137 365.624L360.471 360.829C360.545 360.559 360.284 360.317 360.021 360.415V360.412Z" fill="#FFCE36"/>
<path d="M299.413 35.1811C299.271 35.1811 299.126 35.1415 298.998 35.06C254.455 6.5646 209.008 8.07306 178.727 14.3583C145.869 21.1766 123.265 34.9297 123.039 35.067C122.676 35.2905 122.204 35.1764 121.98 34.8156C121.757 34.4548 121.871 33.9799 122.232 33.7564C122.457 33.6168 145.252 19.7427 178.359 12.8615C197.811 8.82031 216.974 7.9427 235.315 10.2519C258.251 13.1408 279.956 21.0509 299.827 33.7634C300.186 33.9916 300.29 34.4688 300.06 34.8273C299.913 35.0577 299.664 35.1811 299.41 35.1811H299.413Z" fill="#2D3142"/>
<path d="M27.4502 133.305C27.3431 133.305 27.2361 133.284 27.1313 133.236C26.7449 133.059 26.5726 132.602 26.7495 132.216C26.9707 131.729 49.2018 83.3563 78.0837 61.4953C78.4212 61.2393 78.9054 61.3068 79.1615 61.6443C79.4176 61.9842 79.3501 62.466 79.0125 62.7221C50.4449 84.3457 28.3697 132.37 28.1509 132.854C28.0229 133.138 27.7435 133.305 27.4502 133.305Z" fill="#2D3142"/>
<path d="M396.962 135.026C396.664 135.026 396.38 134.851 396.254 134.562C377.548 91.3944 336.724 58.0687 336.314 57.7358C335.983 57.4681 335.932 56.9839 336.2 56.6533C336.468 56.3228 336.952 56.2716 337.282 56.5393C337.694 56.8745 378.814 90.4377 397.667 133.95C397.837 134.341 397.658 134.793 397.267 134.963C397.167 135.007 397.064 135.026 396.962 135.026Z" fill="#2D3142"/>
<path d="M210.227 418.486C201.633 418.486 193.639 417.95 186.546 417.17C157.941 414.025 137.461 406.318 137.256 406.241C136.858 406.09 136.66 405.645 136.811 405.247C136.962 404.849 137.409 404.651 137.805 404.8C138.008 404.877 158.337 412.524 186.758 415.643C212.953 418.52 251.575 418.025 286.84 399.35C287.215 399.153 287.683 399.295 287.88 399.669C288.078 400.044 287.936 400.512 287.562 400.71C261.503 414.51 233.646 418.481 210.23 418.481L210.227 418.486Z" fill="#2D3142"/>
<path d="M251.133 110.793C250.74 110.793 250.404 110.492 250.367 110.094C250.328 109.673 250.637 109.298 251.059 109.256C251.166 109.245 259.523 108.19 264.49 93.2218C264.623 92.8191 265.058 92.6003 265.463 92.733C265.866 92.8657 266.085 93.3033 265.952 93.706C260.633 109.733 251.587 110.753 251.205 110.788C251.182 110.79 251.156 110.793 251.133 110.793Z" fill="white"/>
<path d="M175.191 107.585C175.151 107.585 175.111 107.583 175.072 107.576C163.526 105.795 158.055 92.5864 157.827 92.0254C157.669 91.632 157.857 91.1827 158.251 91.0244C158.644 90.8638 159.093 91.0546 159.254 91.448C159.308 91.5784 164.631 104.41 175.307 106.055C175.728 106.121 176.015 106.514 175.949 106.933C175.891 107.312 175.563 107.585 175.191 107.585Z" fill="white"/>
<path d="M20.4108 206.738C10.9038 206.738 7.47019 197.978 7.43527 197.887C7.28396 197.489 7.48415 197.045 7.88222 196.893C8.28028 196.742 8.72491 196.942 8.87389 197.338C9.00192 197.673 12.1329 205.565 21.0533 205.181C21.4746 205.146 21.8378 205.49 21.8564 205.914C21.875 206.338 21.5468 206.698 21.1231 206.717C20.8834 206.729 20.6436 206.733 20.4108 206.733V206.738Z" fill="white"/>
<path d="M75.5021 201.279C75.1297 201.279 74.8038 201.009 74.7433 200.632C74.6758 200.213 74.9621 199.817 75.3811 199.75C82.1296 198.67 84.0291 193.995 84.1059 193.797C84.2619 193.402 84.7042 193.206 85.1023 193.357C85.498 193.511 85.6959 193.953 85.5446 194.349C85.4561 194.582 83.2865 200.043 75.6255 201.27C75.5836 201.277 75.544 201.279 75.5021 201.279Z" fill="white"/>
<path d="M346.494 176.241C346.24 176.241 345.993 176.117 345.847 175.889C345.616 175.533 345.719 175.056 346.075 174.825C346.566 174.509 358.219 167.115 367.338 173.876C367.68 174.129 367.75 174.611 367.498 174.953C367.245 175.293 366.763 175.368 366.421 175.114C358.166 168.992 347.022 176.047 346.911 176.12C346.783 176.203 346.636 176.243 346.494 176.243V176.241Z" fill="white"/>
<path d="M420.986 197.957C420.639 197.957 420.325 197.722 420.238 197.368C417.876 187.657 408.99 185.841 408.613 185.769C408.196 185.689 407.922 185.284 408.001 184.868C408.08 184.451 408.487 184.179 408.899 184.256C409.002 184.274 419.13 186.309 421.733 197.005C421.833 197.417 421.579 197.834 421.167 197.934C421.107 197.948 421.044 197.955 420.986 197.955V197.957Z" fill="white"/>
<defs>
<filter id="filter0_b_931_50" x="-10.0002" y="-10.0011" width="446" height="446.001" filterUnits="userSpaceOnUse" color-interpolation-filters="sRGB">
<feFlood flood-opacity="0" result="BackgroundImageFix"/>
<feGaussianBlur in="BackgroundImageFix" stdDeviation="5"/>
<feComposite in2="SourceAlpha" operator="in" result="effect1_backgroundBlur_931_50"/>
<feBlend mode="normal" in="SourceGraphic" in2="effect1_backgroundBlur_931_50" result="shape"/>
</filter>
<linearGradient id="paint0_linear_931_50" x1="17.7498" y1="130.167" x2="314.121" y2="409.864" gradientUnits="userSpaceOnUse">
<stop stop-color="#FFCE36"/>
<stop offset="1" stop-color="#FFCE36" stop-opacity="0"/>
</linearGradient>
</defs>
</svg>
