<svg width="49" height="48" viewBox="0 0 49 48" fill="none" xmlns="http://www.w3.org/2000/svg">
<circle cx="24.5" cy="24" r="24" fill="url(#paint0_radial_931_350)"/>
<circle cx="24.5" cy="24" r="24" fill="url(#paint1_radial_931_350)"/>
<path d="M24.904 16.3699C23.0051 16.3699 21.184 17.1242 19.8412 18.467C18.4985 19.8097 17.7441 21.6308 17.7441 23.5298C17.7441 25.4287 18.4985 27.2498 19.8412 28.5926C21.184 29.9353 23.0051 30.6896 24.904 30.6896C26.8029 30.6896 28.6241 29.9353 29.9668 28.5926C31.3096 27.2498 32.0639 25.4287 32.0639 23.5298C32.0639 21.6308 31.3096 19.8097 29.9668 18.467C28.6241 17.1242 26.8029 16.3699 24.904 16.3699ZM24.904 28.1797C23.6704 28.1797 22.4873 27.6896 21.615 26.8173C20.7426 25.945 20.2526 24.7619 20.2526 23.5282C20.2526 22.2946 20.7426 21.1115 21.615 20.2391C22.4873 19.3668 23.6704 18.8768 24.904 18.8768C26.1377 18.8768 27.3208 19.3668 28.1931 20.2391C29.0654 21.1115 29.5555 22.2946 29.5555 23.5282C29.5555 24.7619 29.0654 25.945 28.1931 26.8173C27.3208 27.6896 26.1377 28.1797 24.904 28.1797Z" fill="white"/>
<path d="M32.3474 17.7756C33.2693 17.7756 34.0166 17.0283 34.0166 16.1065C34.0166 15.1846 33.2693 14.4373 32.3474 14.4373C31.4255 14.4373 30.6782 15.1846 30.6782 16.1065C30.6782 17.0283 31.4255 17.7756 32.3474 17.7756Z" fill="white"/>
<path d="M38.118 14.4095C37.7595 13.4838 37.2117 12.6432 36.5097 11.9414C35.8076 11.2396 34.9668 10.6922 34.041 10.334C32.9576 9.92737 31.8131 9.70747 30.6562 9.68371C29.165 9.61868 28.6928 9.6001 24.9115 9.6001C21.1303 9.6001 20.6456 9.6001 19.1669 9.68371C18.0108 9.70625 16.8671 9.9262 15.7851 10.334C14.8591 10.6917 14.018 11.2391 13.3159 11.9409C12.6138 12.6427 12.0662 13.4836 11.7082 14.4095C11.3014 15.4928 11.082 16.6374 11.0594 17.7943C10.9928 19.2839 10.9727 19.7562 10.9727 23.539C10.9727 27.3202 10.9727 27.8018 11.0594 29.2836C11.0826 30.4418 11.3009 31.5845 11.7082 32.67C12.0672 33.5956 12.6154 34.4361 13.3176 35.1378C14.0199 35.8396 14.8608 36.3871 15.7867 36.7454C16.8666 37.1684 18.0108 37.4041 19.17 37.4422C20.6611 37.5072 21.1334 37.5274 24.9146 37.5274C28.6959 37.5274 29.1805 37.5274 30.6592 37.4422C31.8161 37.4187 32.9606 37.1993 34.0441 36.7934C34.9697 36.4345 35.8103 35.8865 36.5122 35.1846C37.2142 34.4826 37.7621 33.642 38.1211 32.7164C38.5283 31.6325 38.7466 30.4898 38.7699 29.3316C38.8364 27.842 38.8566 27.3697 38.8566 23.587C38.8566 19.8042 38.8566 19.3242 38.7699 17.8423C38.7518 16.669 38.5313 15.5077 38.118 14.4095ZM36.232 29.169C36.222 30.0614 36.0591 30.9454 35.7504 31.7827C35.5179 32.3849 35.1619 32.9317 34.7054 33.388C34.2488 33.8442 33.7018 34.1999 33.0996 34.4321C32.2715 34.7394 31.3969 34.9022 30.5137 34.9136C29.0427 34.9818 28.6277 34.9988 24.8558 34.9988C21.0807 34.9988 20.6952 34.9988 19.1963 34.9136C18.3136 34.9028 17.4394 34.7399 16.612 34.4321C16.0076 34.2013 15.4584 33.8463 14.9999 33.3899C14.5414 32.9336 14.1838 32.386 13.9503 31.7827C13.6459 30.9544 13.4831 30.0808 13.4687 29.1984C13.4021 27.7274 13.3866 27.3125 13.3866 23.5405C13.3866 19.767 13.3866 19.3815 13.4687 17.881C13.4787 16.9892 13.6416 16.1057 13.9503 15.2689C14.4225 14.0472 15.3903 13.0856 16.612 12.618C17.4398 12.3116 18.3137 12.1487 19.1963 12.1364C20.6689 12.0698 21.0823 12.0512 24.8558 12.0512C28.6293 12.0512 29.0164 12.0512 30.5137 12.1364C31.3969 12.147 32.2717 12.3099 33.0996 12.618C33.7018 12.8507 34.2487 13.2067 34.7052 13.6632C35.1617 14.1197 35.5178 14.6666 35.7504 15.2689C36.0548 16.0972 36.2176 16.9708 36.232 17.8532C36.2986 19.3257 36.3156 19.7391 36.3156 23.5126C36.3156 27.2846 36.3156 27.6903 36.249 29.1706H36.232V29.169Z" fill="white"/>
<defs>
<radialGradient id="paint0_radial_931_350" cx="0" cy="0" r="1" gradientUnits="userSpaceOnUse" gradientTransform="translate(13.2501 51.697) rotate(-90) scale(47.5715 44.2453)">
<stop stop-color="#FFDD55"/>
<stop offset="0.1" stop-color="#FFDD55"/>
<stop offset="0.5" stop-color="#FF543E"/>
<stop offset="1" stop-color="#C837AB"/>
</radialGradient>
<radialGradient id="paint1_radial_931_350" cx="0" cy="0" r="1" gradientUnits="userSpaceOnUse" gradientTransform="translate(-7.54025 3.45784) rotate(78.6806) scale(21.2647 87.6539)">
<stop stop-color="#3771C8"/>
<stop offset="0.128" stop-color="#3771C8"/>
<stop offset="1" stop-color="#6600FF" stop-opacity="0"/>
</radialGradient>
</defs>
</svg>
