<svg width="176" height="64" viewBox="0 0 176 64" fill="none" xmlns="http://www.w3.org/2000/svg">
<g clip-path="url(#clip0_931_2608)">
<path d="M24.7638 11.9445C18.187 11.9445 7.05757 10.6853 7.05757 5.97223C7.05757 1.25917 18.187 0 24.7638 0C31.3406 0 42.4701 1.25917 42.4701 5.97223C42.4701 10.6853 31.3406 11.9445 24.7638 11.9445ZM10.0373 5.97223C10.4706 6.87248 15.2904 9.00248 24.7638 9.00248C34.2372 9.00248 39.057 6.87248 39.4903 5.97223C39.057 5.07199 34.2372 2.94199 24.7638 2.94199C15.2904 2.94199 10.4706 5.07199 10.0373 5.97223Z" fill="#FFCE36"/>
<path d="M66.8955 45.3066H61.8977V56.6804H65.7974V53.9208H66.8955C70.0593 53.9208 71.8103 52.2497 71.8103 49.6137C71.8103 46.9777 70.0534 45.3066 66.8955 45.3066ZM66.4207 50.9435H65.7321V48.4075H66.4207C67.3882 48.4075 67.8927 48.8311 67.8927 49.6725C67.8927 50.514 67.3823 50.9376 66.4207 50.9376V50.9435Z" fill="#1FB268"/>
<path d="M82.9932 49.3489C82.9932 46.7658 81.1057 45.3007 78.1259 45.3007H73.0093V56.6744H76.9091V53.3912H77.4493L79.2181 56.6744H83.3672L81.07 52.8087C82.3165 52.1732 82.9873 51.0199 82.9873 49.3489H82.9932ZM77.6036 50.7787H76.8497V48.2427H77.6036C78.6008 48.2427 79.0935 48.6664 79.0935 49.5078C79.0935 50.3492 78.6008 50.7728 77.6036 50.7728V50.7787Z" fill="#1FB268"/>
<path d="M88.2404 52.3556H92.4369V49.5608H88.2404V48.131H92.8584V45.3066H84.4712V56.6804H93.0602V53.8208H88.2404V52.3556Z" fill="#1FB268"/>
<path d="M100.812 49.3019L97.8444 45.3066H94.4017V56.6804H98.254V51.1553L100.029 53.6913H101.614L103.4 51.12V56.6804H107.253V45.3066H103.81L100.812 49.3019Z" fill="#1FB268"/>
<path d="M112.963 45.3066H109.063V56.6804H112.963V45.3066Z" fill="#1FB268"/>
<path d="M118.352 45.3066L113.942 56.6804H118.038L118.548 55.1505H122.086L122.626 56.6804H126.627L122.264 45.3066H118.346H118.352ZM119.124 52.7322L120.335 49.3019L121.498 52.7322H119.124Z" fill="#1FB268"/>
<path d="M132.8 45.3066H127.636V56.6804H132.8C136.456 56.6804 138.813 54.4562 138.813 50.9964C138.813 47.5367 136.45 45.3066 132.8 45.3066ZM132.307 53.2677H131.536V48.7193H132.307C134.011 48.7193 134.895 49.5019 134.895 50.9964C134.895 52.491 134.011 53.2735 132.307 53.2735V53.2677Z" fill="#1FB268"/>
<path d="M146.832 45.3066H142.914L138.504 56.6804H142.6L143.11 55.1505H146.648L147.188 56.6804H151.189L146.826 45.3066H146.832ZM143.686 52.7322L144.897 49.3019L146.06 52.7322H143.686Z" fill="#1FB268"/>
<path d="M61.8917 22.2297H74.9088V26.931H67.9758V29.9965H74.06V34.5448H68.0293V40.117H61.8917V22.2297Z" fill="#FFCE36"/>
<path d="M76.921 22.2297H90.1161V26.678H82.8448V28.9256H89.4454V33.321H82.8448V35.6216H90.4247V40.117H76.9151V22.2297H76.921Z" fill="#FFCE36"/>
<path d="M92.152 36.0276L99.1146 27.1839L96.7403 27.2075H92.5141V22.2238H106.718V26.2837L99.732 35.1273L102.462 35.1038H106.997V40.111H92.152V36.0217V36.0276Z" fill="#FFCE36"/>
<path d="M109.372 22.2297H115.509V40.117H109.372V22.2297Z" fill="#FFCE36"/>
<path d="M118.34 22.2297H123.059L129.321 30.3319V22.2297H135.121V40.117H130.402L124.14 31.9912V40.117H118.34V22.2297Z" fill="#FFCE36"/>
<path d="M148.369 33.7799H144.09V40.117H137.952V22.2297H144.09V28.2843H148.369V22.2297H154.507V40.117H148.369V33.7799Z" fill="#FFCE36"/>
<path d="M162.983 22.2297H169.144L176 40.117H169.708L168.859 37.7163H163.292L162.49 40.117H156.044L162.977 22.2297H162.983ZM167.933 33.9094L166.105 28.5196L164.2 33.9094H167.939H167.933Z" fill="#FFCE36"/>
<path d="M0 52.3144C0 58.7574 5.28873 64 11.7883 64C18.2879 64 23.5767 58.7574 23.5767 52.3144V40.6288H11.7943C5.28873 40.6288 0 45.8715 0 52.3144Z" fill="#FFCE36"/>
<path d="M23.5767 26.5897C23.5767 20.1467 18.2879 14.9041 11.7883 14.9041C5.28873 14.9041 0 20.1467 0 26.5897C0 33.0326 5.28873 38.2753 11.7883 38.2753H23.5767V26.5897Z" fill="#1FB268"/>
<path d="M37.7393 64C44.2389 64 49.5276 58.7574 49.5276 52.3144C49.5276 45.8715 44.2389 40.6288 37.7393 40.6288H25.951V52.3144C25.951 58.7574 31.2397 64 37.7393 64Z" fill="#1FB268"/>
<path d="M49.5276 26.5897C49.5276 20.1467 44.2389 14.9041 37.7393 14.9041C31.2397 14.9041 25.951 20.1467 25.951 26.5897V38.2753H37.7334C44.2389 38.2753 49.5276 33.0326 49.5276 26.5897Z" fill="#FFCE36"/>
</g>
<defs>
<clipPath id="clip0_931_2608">
<rect width="176" height="64" fill="white"/>
</clipPath>
</defs>
</svg>
