<svg width="188" height="205" viewBox="0 0 188 205" fill="none" xmlns="http://www.w3.org/2000/svg">
<rect y="59.5823" width="119.165" height="167.914" rx="9.47901" transform="rotate(-30 0 59.5823)" fill="#E2E5F0"/>
<rect y="59.5823" width="119.165" height="144.216" rx="9.47901" transform="rotate(-30 0 59.5823)" fill="#FAFBFE"/>
<path d="M103.235 184.308L102.633 183.265L103.93 182.516L102.011 179.192L101.354 180.348L100.334 179.7L101.56 177.558L102.463 177.037L105.203 181.782L106.418 181.08L107.02 182.123L103.235 184.308ZM110.204 180.284L106.863 174.497L109.128 173.189C110.113 172.62 111.022 172.431 111.855 172.622C112.684 172.807 113.366 173.362 113.9 174.287C114.434 175.212 114.575 176.082 114.324 176.898C114.073 177.715 113.455 178.407 112.47 178.976L110.204 180.284ZM110.875 178.507L111.794 177.976C113.025 177.265 113.284 176.291 112.57 175.054C111.859 173.823 110.888 173.563 109.656 174.274L108.737 174.805L110.875 178.507ZM116.561 176.614L113.22 170.826L114.492 170.092L117.834 175.879L116.561 176.614ZM118.325 175.595L117.644 168.272L118.67 167.68L124.671 171.932L123.39 172.671L122.123 171.728L119.423 173.287L119.614 174.851L118.325 175.595ZM118.927 169.338L119.276 172.047L121.131 170.976L118.943 169.328L118.927 169.338ZM129.388 169.329C128.687 169.733 128.001 169.783 127.329 169.478C126.662 169.17 126.05 168.534 125.494 167.571C124.938 166.607 124.698 165.768 124.774 165.053C124.852 164.329 125.242 163.765 125.942 163.361C126.643 162.956 127.323 162.903 127.984 163.2C128.647 163.489 129.256 164.115 129.812 165.078C130.368 166.041 130.61 166.89 130.538 167.625C130.472 168.356 130.088 168.924 129.388 169.329ZM128.791 168.294C129.108 168.111 129.253 167.819 129.227 167.419C129.197 167.013 128.984 166.468 128.589 165.784C128.194 165.1 127.833 164.651 127.506 164.439C127.179 164.226 126.857 164.212 126.539 164.395C126.222 164.578 126.074 164.865 126.094 165.254C126.115 165.644 126.322 166.18 126.717 166.865C127.112 167.549 127.478 168.005 127.815 168.234C128.148 168.458 128.473 168.478 128.791 168.294ZM134.31 166.487C133.61 166.891 132.923 166.941 132.251 166.636C131.584 166.328 130.973 165.692 130.416 164.729C129.86 163.766 129.62 162.926 129.696 162.211C129.775 161.487 130.164 160.923 130.865 160.519C131.565 160.114 132.246 160.061 132.906 160.358C133.569 160.647 134.178 161.273 134.734 162.236C135.291 163.199 135.533 164.048 135.461 164.783C135.394 165.514 135.011 166.082 134.31 166.487ZM133.713 165.453C134.03 165.269 134.176 164.977 134.149 164.577C134.119 164.171 133.906 163.626 133.511 162.942C133.116 162.258 132.755 161.81 132.428 161.597C132.101 161.385 131.779 161.37 131.462 161.553C131.144 161.736 130.996 162.023 131.016 162.412C131.037 162.802 131.245 163.339 131.64 164.023C132.035 164.707 132.4 165.163 132.737 165.392C133.07 165.616 133.396 165.636 133.713 165.453ZM135.551 162.027L134.793 160.714L136.123 159.946L136.881 161.259L135.551 162.027ZM137.12 164.744L136.361 163.431L137.691 162.663L138.45 163.977L137.12 164.744ZM141.365 162.414C140.664 162.818 139.978 162.868 139.306 162.563C138.639 162.255 138.027 161.619 137.471 160.656C136.915 159.693 136.675 158.853 136.751 158.138C136.829 157.414 137.219 156.85 137.919 156.446C138.62 156.041 139.3 155.988 139.961 156.285C140.624 156.574 141.233 157.2 141.789 158.163C142.345 159.126 142.587 159.975 142.515 160.71C142.449 161.441 142.065 162.009 141.365 162.414ZM140.768 161.38C141.085 161.196 141.23 160.904 141.203 160.504C141.173 160.098 140.961 159.553 140.566 158.869C140.171 158.185 139.81 157.737 139.483 157.524C139.156 157.312 138.834 157.297 138.516 157.48C138.199 157.663 138.051 157.95 138.071 158.339C138.092 158.729 138.299 159.266 138.694 159.95C139.089 160.634 139.455 161.09 139.791 161.319C140.125 161.543 140.45 161.563 140.768 161.38ZM146.509 159.444C145.77 159.871 145.053 159.949 144.357 159.679C143.664 159.401 143.05 158.799 142.516 157.875C141.957 156.906 141.749 156.022 141.894 155.224C142.039 154.425 142.513 153.794 143.318 153.329C143.629 153.149 143.968 153.027 144.332 152.962C144.701 152.895 145.058 152.893 145.402 152.958L145.536 154.139C145.241 154.083 144.955 154.08 144.678 154.131C144.403 154.173 144.148 154.262 143.913 154.398C143.015 154.916 142.906 155.763 143.585 156.94L143.675 157.096C143.632 156.756 143.688 156.442 143.844 156.156C143.996 155.863 144.228 155.627 144.54 155.447C144.869 155.257 145.206 155.172 145.553 155.191C145.902 155.201 146.232 155.306 146.544 155.505C146.853 155.699 147.112 155.976 147.32 156.338C147.541 156.721 147.654 157.112 147.658 157.511C147.665 157.901 147.569 158.266 147.371 158.607C147.179 158.944 146.892 159.223 146.509 159.444ZM145.87 158.489C146.121 158.343 146.275 158.142 146.33 157.883C146.388 157.617 146.336 157.344 146.175 157.065C146.017 156.791 145.808 156.612 145.548 156.529C145.294 156.442 145.041 156.472 144.789 156.617C144.532 156.765 144.374 156.973 144.317 157.24C144.265 157.503 144.317 157.772 144.475 158.046C144.637 158.325 144.844 158.508 145.099 158.594C145.355 158.672 145.612 158.637 145.87 158.489ZM147.528 155.112L146.77 153.799L148.099 153.031L148.858 154.344L147.528 155.112ZM149.097 157.829L148.338 156.516L149.668 155.748L150.427 157.062L149.097 157.829ZM151.434 156.48L150.889 155.536L151.604 152.584C151.688 152.199 151.726 151.886 151.717 151.643C151.711 151.391 151.652 151.17 151.541 150.978C151.257 150.486 150.811 150.415 150.204 150.765C149.968 150.901 149.76 151.084 149.578 151.312C149.394 151.536 149.243 151.805 149.126 152.121L148.175 151.422C148.296 151.075 148.496 150.74 148.777 150.418C149.063 150.092 149.393 149.822 149.765 149.607C150.411 149.234 150.987 149.095 151.494 149.189C152.003 149.274 152.41 149.583 152.717 150.113C152.919 150.464 153.031 150.848 153.054 151.265C153.078 151.674 153.015 152.171 152.863 152.755L152.4 154.532L154.765 153.167L155.366 154.21L151.434 156.48ZM158.124 152.738C157.719 152.972 157.3 153.137 156.867 153.234C156.434 153.33 156.043 153.348 155.694 153.287L155.542 152.094C156.238 152.174 156.878 152.045 157.464 151.707C158.131 151.322 158.321 150.88 158.034 150.382C157.769 149.922 157.324 149.872 156.7 150.233L155.731 150.792L155.139 149.766L155.984 149.278C156.258 149.12 156.438 148.932 156.524 148.714C156.61 148.497 156.588 148.276 156.459 148.052C156.2 147.603 155.777 147.547 155.192 147.886C154.644 148.202 154.263 148.666 154.048 149.279L153.105 148.576C153.223 148.223 153.424 147.888 153.708 147.571C153.988 147.249 154.318 146.978 154.695 146.76C155.319 146.4 155.887 146.258 156.398 146.335C156.909 146.412 157.306 146.694 157.587 147.181C157.761 147.482 157.837 147.792 157.817 148.11C157.796 148.429 157.679 148.719 157.466 148.981C157.848 148.884 158.202 148.91 158.528 149.057C158.856 149.196 159.121 149.44 159.323 149.791C159.627 150.316 159.671 150.841 159.456 151.367C159.241 151.892 158.798 152.349 158.124 152.738Z" fill="#FAFBFE"/>
<path d="M83.392 139.257L78.8573 131.403L82.2664 129.434C83.128 128.937 83.9128 128.761 84.6209 128.907C85.3246 129.045 85.8909 129.486 86.3197 130.229C86.6585 130.815 86.7871 131.39 86.7056 131.952C86.6197 132.506 86.3295 133.016 85.8348 133.479C86.2822 133.38 86.7592 133.485 87.2659 133.797L89.9763 135.456L88.4054 136.362L85.599 134.64C85.3238 134.473 85.0676 134.398 84.8305 134.416C84.6008 134.43 84.3448 134.518 84.0626 134.681L83.0042 135.292L84.818 138.434L83.392 139.257ZM82.3931 134.234L84.1311 133.23C85.1709 132.63 85.4464 131.906 84.9575 131.06C84.473 130.22 83.7108 130.101 82.671 130.701L80.933 131.705L82.3931 134.234ZM93.8081 134.951L93.1005 133.726C92.5889 133.972 92.0732 134.151 91.5536 134.263C91.037 134.363 90.544 134.375 90.0746 134.3L89.8594 132.923C90.3586 132.982 90.8569 132.962 91.3543 132.863C91.8517 132.764 92.3492 132.57 92.8468 132.283C93.389 131.97 93.7306 131.644 93.8716 131.305C94.0127 130.966 93.9996 130.652 93.8323 130.362C93.6822 130.102 93.4768 129.944 93.2159 129.886C92.955 129.829 92.5776 129.879 92.0836 130.035L90.7548 130.461C90.0006 130.698 89.354 130.744 88.8151 130.6C88.2793 130.444 87.8463 130.08 87.5162 129.508C87.156 128.884 87.0653 128.238 87.2442 127.571C87.4263 126.891 87.8518 126.299 88.5208 125.794L87.794 124.535L88.9081 123.892L89.6285 125.139C90.0361 124.953 90.4648 124.83 90.9145 124.768C91.3642 124.707 91.7882 124.729 92.1865 124.836L92.3807 126.15C91.516 125.956 90.6455 126.112 89.7691 126.618C89.3086 126.884 88.9994 127.206 88.8415 127.584C88.6868 127.951 88.7081 128.305 88.9053 128.647C89.0511 128.899 89.2545 129.054 89.5153 129.111C89.7762 129.169 90.1196 129.129 90.5456 128.992L91.8745 128.566C92.6775 128.311 93.3485 128.255 93.8874 128.399C94.4295 128.532 94.8613 128.877 95.1829 129.434C95.5431 130.058 95.6236 130.695 95.4244 131.345C95.2283 131.983 94.8186 132.551 94.1953 133.049L94.9222 134.308L93.8081 134.951ZM98.8972 130.305L97.7488 128.316L100.732 126.594L95.8248 118.094L94.3186 120.815L92.3621 119.593L94.9374 114.953L96.6449 113.968L103.134 125.207L105.93 123.593L107.078 125.582L98.8972 130.305ZM113.84 121.928C112.277 122.831 110.742 122.932 109.238 122.233C107.726 121.522 106.339 120.071 105.075 117.882C103.796 115.668 103.238 113.747 103.399 112.12C103.56 110.492 104.422 109.227 105.986 108.324C107.562 107.414 109.089 107.3 110.567 107.981C112.057 108.656 113.437 110.093 114.708 112.295C115.979 114.497 116.545 116.43 116.406 118.095C116.259 119.747 115.404 121.025 113.84 121.928ZM112.703 119.958C113.553 119.467 113.955 118.718 113.907 117.711C113.865 116.685 113.357 115.327 112.382 113.638C111.414 111.962 110.507 110.868 109.661 110.356C108.82 109.824 107.974 109.803 107.124 110.294C106.285 110.778 105.88 111.521 105.908 112.522C105.929 113.511 106.423 114.844 107.39 116.52C108.365 118.209 109.287 119.328 110.155 119.878C111.015 120.415 111.865 120.442 112.703 119.958ZM125.091 115.432C123.527 116.335 121.993 116.437 120.489 115.738C118.977 115.026 117.589 113.576 116.325 111.386C115.047 109.172 114.489 107.252 114.65 105.624C114.811 103.997 115.673 102.731 117.237 101.829C118.813 100.919 120.34 100.804 121.817 101.486C123.307 102.16 124.688 103.598 125.959 105.799C127.23 108.001 127.796 109.934 127.656 111.599C127.51 113.252 126.655 114.529 125.091 115.432ZM123.953 113.462C124.804 112.971 125.206 112.222 125.158 111.215C125.116 110.189 124.607 108.831 123.632 107.143C122.665 105.467 121.758 104.372 120.912 103.86C120.071 103.328 119.225 103.308 118.374 103.799C117.536 104.283 117.131 105.025 117.159 106.027C117.179 107.016 117.674 108.348 118.641 110.024C119.616 111.713 120.538 112.832 121.405 113.382C122.266 113.919 123.115 113.946 123.953 113.462Z" fill="#E2E5F0"/>
<path d="M108.729 145.509L105.603 140.094L106.484 139.586L107.011 140.5C106.986 140.079 107.069 139.699 107.26 139.361C107.446 139.015 107.733 138.731 108.119 138.508C108.966 138.019 109.72 138.074 110.382 138.672C110.349 138.236 110.436 137.829 110.644 137.452C110.847 137.067 111.157 136.754 111.573 136.514C112.776 135.82 113.789 136.185 114.613 137.611L116.562 140.987L115.659 141.508L113.736 138.177C113.449 137.679 113.149 137.367 112.838 137.239C112.53 137.1 112.176 137.147 111.774 137.378C111.336 137.631 111.077 137.989 110.997 138.451C110.918 138.913 111.028 139.404 111.328 139.924L113.097 142.987L112.194 143.508L110.271 140.177C109.984 139.68 109.685 139.367 109.373 139.24C109.065 139.101 108.711 139.147 108.31 139.379C107.864 139.636 107.601 139.995 107.521 140.458C107.449 140.915 107.563 141.404 107.863 141.924L109.632 144.988L108.729 145.509ZM114.233 133.315L113.648 132.301L114.762 131.658L115.347 132.671L114.233 133.315ZM118.249 140.013L115.123 134.598L116.025 134.077L119.151 139.492L118.249 140.013ZM122.556 137.66C122.006 137.977 121.498 138.057 121.032 137.901C120.568 137.733 120.158 137.341 119.803 136.724L116.303 130.663L117.206 130.142L120.666 136.136C121.125 136.931 121.67 137.146 122.302 136.782C122.487 136.674 122.642 136.556 122.764 136.425L123.179 137.196C122.979 137.381 122.771 137.535 122.556 137.66Z" fill="#E2E5F0"/>
<circle cx="72.9273" cy="66.7321" r="27.0829" transform="rotate(-30 72.9273 66.7321)" fill="#E2E5F0"/>
</svg>
