<svg width="49" height="48" viewBox="0 0 49 48" fill="none" xmlns="http://www.w3.org/2000/svg">
<circle cx="24.5" cy="24" r="24" fill="url(#paint0_radial_931_357)"/>
<circle cx="24.5" cy="24" r="24" fill="#14D5FF"/>
<path d="M36.2672 14.082L11.5735 22.9659C10.7737 23.2537 10.8222 24.3134 11.6455 24.5378L17.9204 26.2485L20.2622 33.1087C20.5069 33.8253 21.4905 34.0425 22.0598 33.5058L25.3041 30.4475L31.6698 34.7612C32.4488 35.2891 33.5582 34.8969 33.756 34.0237L37.972 15.4148C38.1784 14.5033 37.2071 13.7439 36.2672 14.082ZM33.1713 18.2118L21.7012 27.5759C21.5869 27.6693 21.5141 27.7985 21.4971 27.9385L21.0555 31.5627C21.0411 31.6809 20.8619 31.6966 20.8237 31.583L19.0068 26.178C18.9236 25.9305 19.0321 25.6624 19.2705 25.5259L32.8155 17.7702C33.127 17.5918 33.4459 17.9876 33.1713 18.2118Z" fill="white"/>
<defs>
<radialGradient id="paint0_radial_931_357" cx="0" cy="0" r="1" gradientUnits="userSpaceOnUse" gradientTransform="translate(13.2501 51.697) rotate(-90) scale(47.5715 44.2453)">
<stop stop-color="#FFDD55"/>
<stop offset="0.1" stop-color="#FFDD55"/>
<stop offset="0.5" stop-color="#FF543E"/>
<stop offset="1" stop-color="#C837AB"/>
</radialGradient>
</defs>
</svg>
