<svg width="103" height="134" viewBox="0 0 103 134" fill="none" xmlns="http://www.w3.org/2000/svg">
<g clip-path="url(#clip0_931_2648)">
<path d="M51.15 24.89C37.57 24.89 14.58 22.27 14.58 12.44C14.58 2.61 37.57 0 51.15 0C64.73 0 87.72 2.62 87.72 12.45C87.72 22.28 64.74 24.9 51.15 24.9V24.89ZM20.74 12.44C21.63 14.32 31.59 18.76 51.15 18.76C70.71 18.76 80.67 14.32 81.56 12.44C80.67 10.56 70.71 6.12 51.15 6.12C31.59 6.12 21.63 10.56 20.74 12.44Z" fill="#FFCE36"/>
<path d="M0 109.01C0 122.44 10.92 133.36 24.35 133.36C37.78 133.36 48.65 122.48 48.7 109.1V84.67H24.36C10.92 84.67 0 95.59 0 109.02L0 109.01Z" fill="#FFCE36"/>
<path d="M48.7 55.32C48.66 41.93 37.75 31.05 24.35 31.05C10.95 31.05 0 41.9801 0 55.4001C0 68.8201 10.92 79.75 24.35 79.75H48.7V55.32Z" fill="#1FB268"/>
<path d="M53.6 109.09C53.64 122.48 64.55 133.36 77.95 133.36C91.35 133.36 102.3 122.44 102.3 109.01C102.3 95.58 91.38 84.66 77.95 84.66H53.6V109.09Z" fill="#1FB268"/>
<path d="M102.3 55.4001C102.3 41.9701 91.38 31.05 77.95 31.05C64.52 31.05 53.65 41.9301 53.6 55.3101V79.74H77.94C91.38 79.74 102.3 68.82 102.3 55.39V55.4001Z" fill="#FFCE36"/>
</g>
<defs>
<clipPath id="clip0_931_2648">
<rect width="102.3" height="133.35" fill="white"/>
</clipPath>
</defs>
</svg>
